<?xml version="1.0" encoding="UTF-8" standalone="no"?>
<!DOCTYPE svg PUBLIC "-//W3C//DTD SVG 1.1//EN"
 "http://www.w3.org/Graphics/SVG/1.1/DTD/svg11.dtd">
<!-- Generated by graphviz version 2.40.1 (20161225.0304)
 -->
<!-- Title: dependencies Pages: 1 -->
<svg width="2052pt" height="276pt"
 viewBox="0.00 0.00 2052.00 276.00" xmlns="http://www.w3.org/2000/svg" xmlns:xlink="http://www.w3.org/1999/xlink">
<g id="graph0" class="graph" transform="scale(1 1) rotate(0) translate(4 272)">
<title>dependencies</title>
<polygon fill="#ffffff" stroke="transparent" points="-4,4 -4,-272 2048,-272 2048,4 -4,4"/>
<text text-anchor="start" x="1001.0091" y="-42.4" font-family="sans-serif" font-weight="bold" font-size="14.00" fill="#000000">Legend</text>
<polygon fill="#ffffb3" stroke="transparent" points="788,-10 788,-30 808,-30 808,-10 788,-10"/>
<text text-anchor="start" x="811.629" y="-15.4" font-family="sans-serif" font-size="14.00" fill="#000000"> &#160;Declarations</text>
<polygon fill="#8dd3c7" stroke="transparent" points="901,-10 901,-30 921,-30 921,-10 901,-10"/>
<text text-anchor="start" x="924.7251" y="-15.4" font-family="sans-serif" font-size="14.00" fill="#000000"> &#160;Module</text>
<polygon fill="#80b1d3" stroke="transparent" points="987,-10 987,-30 1007,-30 1007,-10 987,-10"/>
<text text-anchor="start" x="1010.7812" y="-15.4" font-family="sans-serif" font-size="14.00" fill="#000000"> &#160;Bootstrap</text>
<polygon fill="#fdb462" stroke="transparent" points="1084,-10 1084,-30 1104,-30 1104,-10 1084,-10"/>
<text text-anchor="start" x="1107.6732" y="-15.4" font-family="sans-serif" font-size="14.00" fill="#000000"> &#160;Providers</text>
<polygon fill="#fb8072" stroke="transparent" points="1180,-10 1180,-30 1200,-30 1200,-10 1180,-10"/>
<text text-anchor="start" x="1203.7258" y="-15.4" font-family="sans-serif" font-size="14.00" fill="#000000"> &#160;Exports</text>
<g id="clust1" class="cluster">
<title>cluster_AdminLayoutModule</title>
<polygon fill="none" stroke="#000000" stroke-dasharray="1,5" points="8,-70 8,-260 2036,-260 2036,-70 8,-70"/>
</g>
<g id="clust2" class="cluster">
<title>cluster_AdminLayoutModule_declarations</title>
<polygon fill="none" stroke="#000000" points="130,-143 130,-195 2028,-195 2028,-143 130,-143"/>
</g>
<g id="clust3" class="cluster">
<title>cluster_AdminLayoutModule_ChatComponent_providers</title>
<polygon fill="none" stroke="#000000" points="1896,-78 1896,-130 2028,-130 2028,-78 1896,-78"/>
</g>
<g id="clust14" class="cluster">
<title>cluster_AdminLayoutModule_imports</title>
<polygon fill="none" stroke="#000000" points="16,-143 16,-195 122,-195 122,-143 16,-143"/>
</g>
<!-- ChatComponent -->
<g id="node1" class="node">
<title>ChatComponent</title>
<polygon fill="#ffffb3" stroke="#000000" points="2019.7744,-187 1912.2256,-187 1912.2256,-151 2019.7744,-151 2019.7744,-187"/>
<text text-anchor="middle" x="1966" y="-164.8" font-family="Times,serif" font-size="14.00" fill="#000000">ChatComponent</text>
</g>
<!-- AdminLayoutModule -->
<g id="node12" class="node">
<title>AdminLayoutModule</title>
<polygon fill="#8dd3c7" stroke="#000000" points="1041.0954,-252 1038.0954,-256 1017.0954,-256 1014.0954,-252 902.9046,-252 902.9046,-216 1041.0954,-216 1041.0954,-252"/>
<text text-anchor="middle" x="972" y="-229.8" font-family="Times,serif" font-size="14.00" fill="#000000">AdminLayoutModule</text>
</g>
<!-- ChatComponent&#45;&gt;AdminLayoutModule -->
<g id="edge1" class="edge">
<title>ChatComponent&#45;&gt;AdminLayoutModule</title>
<path fill="none" stroke="#000000" d="M1966,-187.0908C1966,-210.1328 1966,-247 1966,-247 1966,-247 1051.107,-247 1051.107,-247"/>
<polygon fill="#000000" stroke="#000000" points="1051.107,-243.5001 1041.107,-247 1051.1069,-250.5001 1051.107,-243.5001"/>
</g>
<!-- ContactComponent -->
<g id="node2" class="node">
<title>ContactComponent</title>
<polygon fill="#ffffb3" stroke="#000000" points="1894.3795,-187 1769.6205,-187 1769.6205,-151 1894.3795,-151 1894.3795,-187"/>
<text text-anchor="middle" x="1832" y="-164.8" font-family="Times,serif" font-size="14.00" fill="#000000">ContactComponent</text>
</g>
<!-- ContactComponent&#45;&gt;AdminLayoutModule -->
<g id="edge3" class="edge">
<title>ContactComponent&#45;&gt;AdminLayoutModule</title>
<path fill="none" stroke="#000000" d="M1832,-187.2843C1832,-208.3211 1832,-240 1832,-240 1832,-240 1051.2859,-240 1051.2859,-240"/>
<polygon fill="#000000" stroke="#000000" points="1051.2859,-236.5001 1041.2859,-240 1051.2859,-243.5001 1051.2859,-236.5001"/>
</g>
<!-- DashboardComponent -->
<g id="node3" class="node">
<title>DashboardComponent</title>
<polygon fill="#ffffb3" stroke="#000000" points="1751.9734,-187 1610.0266,-187 1610.0266,-151 1751.9734,-151 1751.9734,-187"/>
<text text-anchor="middle" x="1681" y="-164.8" font-family="Times,serif" font-size="14.00" fill="#000000">DashboardComponent</text>
</g>
<!-- DashboardComponent&#45;&gt;AdminLayoutModule -->
<g id="edge4" class="edge">
<title>DashboardComponent&#45;&gt;AdminLayoutModule</title>
<path fill="none" stroke="#000000" d="M1681,-187.1061C1681,-206.3391 1681,-234 1681,-234 1681,-234 1051.2728,-234 1051.2728,-234"/>
<polygon fill="#000000" stroke="#000000" points="1051.2729,-230.5001 1041.2728,-234 1051.2728,-237.5001 1051.2729,-230.5001"/>
</g>
<!-- OrganizationAddMembersComponent -->
<g id="node4" class="node">
<title>OrganizationAddMembersComponent</title>
<polygon fill="#ffffb3" stroke="#000000" points="1591.8917,-187 1360.1083,-187 1360.1083,-151 1591.8917,-151 1591.8917,-187"/>
<text text-anchor="middle" x="1476" y="-164.8" font-family="Times,serif" font-size="14.00" fill="#000000">OrganizationAddMembersComponent</text>
</g>
<!-- OrganizationAddMembersComponent&#45;&gt;AdminLayoutModule -->
<g id="edge5" class="edge">
<title>OrganizationAddMembersComponent&#45;&gt;AdminLayoutModule</title>
<path fill="none" stroke="#000000" d="M1476,-187.0225C1476,-204.3734 1476,-228 1476,-228 1476,-228 1051.2859,-228 1051.2859,-228"/>
<polygon fill="#000000" stroke="#000000" points="1051.2859,-224.5001 1041.2859,-228 1051.2859,-231.5001 1051.2859,-224.5001"/>
</g>
<!-- OrganizationComponent -->
<g id="node5" class="node">
<title>OrganizationComponent</title>
<polygon fill="#ffffb3" stroke="#000000" points="1342.4158,-187 1187.5842,-187 1187.5842,-151 1342.4158,-151 1342.4158,-187"/>
<text text-anchor="middle" x="1265" y="-164.8" font-family="Times,serif" font-size="14.00" fill="#000000">OrganizationComponent</text>
</g>
<!-- OrganizationComponent&#45;&gt;AdminLayoutModule -->
<g id="edge6" class="edge">
<title>OrganizationComponent&#45;&gt;AdminLayoutModule</title>
<path fill="none" stroke="#000000" d="M1265,-187.2396C1265,-202.5706 1265,-222 1265,-222 1265,-222 1051.0659,-222 1051.0659,-222"/>
<polygon fill="#000000" stroke="#000000" points="1051.0659,-218.5001 1041.0659,-222 1051.0659,-225.5001 1051.0659,-218.5001"/>
</g>
<!-- OrganizationJoinComponent -->
<g id="node6" class="node">
<title>OrganizationJoinComponent</title>
<polygon fill="#ffffb3" stroke="#000000" points="1169.7506,-187 992.2494,-187 992.2494,-151 1169.7506,-151 1169.7506,-187"/>
<text text-anchor="middle" x="1081" y="-164.8" font-family="Times,serif" font-size="14.00" fill="#000000">OrganizationJoinComponent</text>
</g>
<!-- OrganizationJoinComponent&#45;&gt;AdminLayoutModule -->
<g id="edge7" class="edge">
<title>OrganizationJoinComponent&#45;&gt;AdminLayoutModule</title>
<path fill="none" stroke="#000000" d="M1016.5863,-187.1061C1016.5863,-187.1061 1016.5863,-205.991 1016.5863,-205.991"/>
<polygon fill="#000000" stroke="#000000" points="1013.0863,-205.9909 1016.5863,-215.991 1020.0863,-205.991 1013.0863,-205.9909"/>
</g>
<!-- OrganizationRegistrationComponent -->
<g id="node7" class="node">
<title>OrganizationRegistrationComponent</title>
<polygon fill="#ffffb3" stroke="#000000" points="974.3487,-187 751.6513,-187 751.6513,-151 974.3487,-151 974.3487,-187"/>
<text text-anchor="middle" x="863" y="-164.8" font-family="Times,serif" font-size="14.00" fill="#000000">OrganizationRegistrationComponent</text>
</g>
<!-- OrganizationRegistrationComponent&#45;&gt;AdminLayoutModule -->
<g id="edge8" class="edge">
<title>OrganizationRegistrationComponent&#45;&gt;AdminLayoutModule</title>
<path fill="none" stroke="#000000" d="M938.6883,-187.1061C938.6883,-187.1061 938.6883,-205.991 938.6883,-205.991"/>
<polygon fill="#000000" stroke="#000000" points="935.1884,-205.9909 938.6883,-215.991 942.1884,-205.991 935.1884,-205.9909"/>
</g>
<!-- ProjectComponent -->
<g id="node8" class="node">
<title>ProjectComponent</title>
<polygon fill="#ffffb3" stroke="#000000" points="733.486,-187 612.514,-187 612.514,-151 733.486,-151 733.486,-187"/>
<text text-anchor="middle" x="673" y="-164.8" font-family="Times,serif" font-size="14.00" fill="#000000">ProjectComponent</text>
</g>
<!-- ProjectComponent&#45;&gt;AdminLayoutModule -->
<g id="edge9" class="edge">
<title>ProjectComponent&#45;&gt;AdminLayoutModule</title>
<path fill="none" stroke="#000000" d="M673,-187.2396C673,-202.5706 673,-222 673,-222 673,-222 892.6519,-222 892.6519,-222"/>
<polygon fill="#000000" stroke="#000000" points="892.6519,-225.5001 902.6519,-222 892.6518,-218.5001 892.6519,-225.5001"/>
</g>
<!-- ProjectsListComponent -->
<g id="node9" class="node">
<title>ProjectsListComponent</title>
<polygon fill="#ffffb3" stroke="#000000" points="594.2091,-187 445.7909,-187 445.7909,-151 594.2091,-151 594.2091,-187"/>
<text text-anchor="middle" x="520" y="-164.8" font-family="Times,serif" font-size="14.00" fill="#000000">ProjectsListComponent</text>
</g>
<!-- ProjectsListComponent&#45;&gt;AdminLayoutModule -->
<g id="edge10" class="edge">
<title>ProjectsListComponent&#45;&gt;AdminLayoutModule</title>
<path fill="none" stroke="#000000" d="M520,-187.0225C520,-204.3734 520,-228 520,-228 520,-228 892.8589,-228 892.8589,-228"/>
<polygon fill="#000000" stroke="#000000" points="892.8589,-231.5001 902.8589,-228 892.8589,-224.5001 892.8589,-231.5001"/>
</g>
<!-- SupportComponent -->
<g id="node10" class="node">
<title>SupportComponent</title>
<polygon fill="#ffffb3" stroke="#000000" points="427.6666,-187 302.3334,-187 302.3334,-151 427.6666,-151 427.6666,-187"/>
<text text-anchor="middle" x="365" y="-164.8" font-family="Times,serif" font-size="14.00" fill="#000000">SupportComponent</text>
</g>
<!-- SupportComponent&#45;&gt;AdminLayoutModule -->
<g id="edge11" class="edge">
<title>SupportComponent&#45;&gt;AdminLayoutModule</title>
<path fill="none" stroke="#000000" d="M365,-187.1061C365,-206.3391 365,-234 365,-234 365,-234 892.6651,-234 892.6651,-234"/>
<polygon fill="#000000" stroke="#000000" points="892.6652,-237.5001 902.6651,-234 892.6651,-230.5001 892.6652,-237.5001"/>
</g>
<!-- UserProfileComponent -->
<g id="node11" class="node">
<title>UserProfileComponent</title>
<polygon fill="#ffffb3" stroke="#000000" points="283.8585,-187 138.1415,-187 138.1415,-151 283.8585,-151 283.8585,-187"/>
<text text-anchor="middle" x="211" y="-164.8" font-family="Times,serif" font-size="14.00" fill="#000000">UserProfileComponent</text>
</g>
<!-- UserProfileComponent&#45;&gt;AdminLayoutModule -->
<g id="edge12" class="edge">
<title>UserProfileComponent&#45;&gt;AdminLayoutModule</title>
<path fill="none" stroke="#000000" d="M211,-187.2843C211,-208.3211 211,-240 211,-240 211,-240 892.7869,-240 892.7869,-240"/>
<polygon fill="#000000" stroke="#000000" points="892.7869,-243.5001 902.7869,-240 892.7868,-236.5001 892.7869,-243.5001"/>
</g>
<!-- ChatService -->
<g id="node13" class="node">
<title>ChatService</title>
<ellipse fill="#fdb462" stroke="#000000" cx="1962" cy="-104" rx="58.4628" ry="18"/>
<text text-anchor="middle" x="1962" y="-99.8" font-family="Times,serif" font-size="14.00" fill="#000000">ChatService</text>
</g>
<!-- ChatService&#45;&gt;ChatComponent -->
<g id="edge2" class="edge">
<title>ChatService&#45;&gt;ChatComponent</title>
<path fill="none" stroke="#000000" d="M1966,-122.1061C1966,-122.1061 1966,-140.991 1966,-140.991"/>
<polygon fill="#000000" stroke="#000000" points="1962.5001,-140.9909 1966,-150.991 1969.5001,-140.991 1962.5001,-140.9909"/>
</g>
<!-- IconsModule -->
<g id="node14" class="node">
<title>IconsModule</title>
<polygon fill="#8dd3c7" stroke="#000000" points="113.8697,-187 110.8697,-191 89.8697,-191 86.8697,-187 24.1303,-187 24.1303,-151 113.8697,-151 113.8697,-187"/>
<text text-anchor="middle" x="69" y="-164.8" font-family="Times,serif" font-size="14.00" fill="#000000">IconsModule</text>
</g>
<!-- IconsModule&#45;&gt;AdminLayoutModule -->
<g id="edge13" class="edge">
<title>IconsModule&#45;&gt;AdminLayoutModule</title>
<path fill="none" stroke="#000000" d="M69,-187.0908C69,-210.1328 69,-247 69,-247 69,-247 892.6425,-247 892.6425,-247"/>
<polygon fill="#000000" stroke="#000000" points="892.6425,-250.5001 902.6425,-247 892.6425,-243.5001 892.6425,-250.5001"/>
</g>
</g>
</svg>
