<?xml version="1.0" encoding="UTF-8" standalone="no"?>
<!DOCTYPE svg PUBLIC "-//W3C//DTD SVG 1.1//EN"
 "http://www.w3.org/Graphics/SVG/1.1/DTD/svg11.dtd">
<!-- Generated by graphviz version 2.40.1 (20161225.0304)
 -->
<!-- Title: dependencies Pages: 1 -->
<svg width="2376pt" height="211pt"
 viewBox="0.00 0.00 2376.00 211.00" xmlns="http://www.w3.org/2000/svg" xmlns:xlink="http://www.w3.org/1999/xlink">
<g id="graph0" class="graph" transform="scale(1 1) rotate(0) translate(4 207)">
<title>dependencies</title>
<polygon fill="#ffffff" stroke="transparent" points="-4,4 -4,-207 2372,-207 2372,4 -4,4"/>
<text text-anchor="start" x="1163.0091" y="-42.4" font-family="sans-serif" font-weight="bold" font-size="14.00" fill="#000000">Legend</text>
<polygon fill="#ffffb3" stroke="transparent" points="950,-10 950,-30 970,-30 970,-10 950,-10"/>
<text text-anchor="start" x="973.629" y="-15.4" font-family="sans-serif" font-size="14.00" fill="#000000"> &#160;Declarations</text>
<polygon fill="#8dd3c7" stroke="transparent" points="1063,-10 1063,-30 1083,-30 1083,-10 1063,-10"/>
<text text-anchor="start" x="1086.7251" y="-15.4" font-family="sans-serif" font-size="14.00" fill="#000000"> &#160;Module</text>
<polygon fill="#80b1d3" stroke="transparent" points="1149,-10 1149,-30 1169,-30 1169,-10 1149,-10"/>
<text text-anchor="start" x="1172.7812" y="-15.4" font-family="sans-serif" font-size="14.00" fill="#000000"> &#160;Bootstrap</text>
<polygon fill="#fdb462" stroke="transparent" points="1246,-10 1246,-30 1266,-30 1266,-10 1246,-10"/>
<text text-anchor="start" x="1269.6732" y="-15.4" font-family="sans-serif" font-size="14.00" fill="#000000"> &#160;Providers</text>
<polygon fill="#fb8072" stroke="transparent" points="1342,-10 1342,-30 1362,-30 1362,-10 1342,-10"/>
<text text-anchor="start" x="1365.7258" y="-15.4" font-family="sans-serif" font-size="14.00" fill="#000000"> &#160;Exports</text>
<g id="clust1" class="cluster">
<title>cluster_AdminLayoutModule</title>
<polygon fill="none" stroke="#000000" stroke-dasharray="1,5" points="8,-70 8,-195 2360,-195 2360,-70 8,-70"/>
</g>
<g id="clust2" class="cluster">
<title>cluster_AdminLayoutModule_declarations</title>
<polygon fill="none" stroke="#000000" points="130,-78 130,-130 2352,-130 2352,-78 130,-78"/>
</g>
<g id="clust16" class="cluster">
<title>cluster_AdminLayoutModule_imports</title>
<polygon fill="none" stroke="#000000" points="16,-78 16,-130 122,-130 122,-78 16,-78"/>
</g>
<!-- ChatComponent -->
<g id="node1" class="node">
<title>ChatComponent</title>
<polygon fill="#ffffb3" stroke="#000000" points="2343.7744,-122 2236.2256,-122 2236.2256,-86 2343.7744,-86 2343.7744,-122"/>
<text text-anchor="middle" x="2290" y="-99.8" font-family="Times,serif" font-size="14.00" fill="#000000">ChatComponent</text>
</g>
<!-- AdminLayoutModule -->
<g id="node14" class="node">
<title>AdminLayoutModule</title>
<polygon fill="#8dd3c7" stroke="#000000" points="1179.0954,-187 1176.0954,-191 1155.0954,-191 1152.0954,-187 1040.9046,-187 1040.9046,-151 1179.0954,-151 1179.0954,-187"/>
<text text-anchor="middle" x="1110" y="-164.8" font-family="Times,serif" font-size="14.00" fill="#000000">AdminLayoutModule</text>
</g>
<!-- ChatComponent&#45;&gt;AdminLayoutModule -->
<g id="edge1" class="edge">
<title>ChatComponent&#45;&gt;AdminLayoutModule</title>
<path fill="none" stroke="#000000" d="M2290,-122.0908C2290,-145.1328 2290,-182 2290,-182 2290,-182 1189.409,-182 1189.409,-182"/>
<polygon fill="#000000" stroke="#000000" points="1189.409,-178.5001 1179.409,-182 1189.409,-185.5001 1189.409,-178.5001"/>
</g>
<!-- ContactComponent -->
<g id="node2" class="node">
<title>ContactComponent</title>
<polygon fill="#ffffb3" stroke="#000000" points="2218.3795,-122 2093.6205,-122 2093.6205,-86 2218.3795,-86 2218.3795,-122"/>
<text text-anchor="middle" x="2156" y="-99.8" font-family="Times,serif" font-size="14.00" fill="#000000">ContactComponent</text>
</g>
<!-- ContactComponent&#45;&gt;AdminLayoutModule -->
<g id="edge2" class="edge">
<title>ContactComponent&#45;&gt;AdminLayoutModule</title>
<path fill="none" stroke="#000000" d="M2156,-122.0449C2156,-143.6623 2156,-177 2156,-177 2156,-177 1189.441,-177 1189.441,-177"/>
<polygon fill="#000000" stroke="#000000" points="1189.4411,-173.5001 1179.441,-177 1189.441,-180.5001 1189.4411,-173.5001"/>
</g>
<!-- DashboardComponent -->
<g id="node3" class="node">
<title>DashboardComponent</title>
<polygon fill="#ffffb3" stroke="#000000" points="2075.9734,-122 1934.0266,-122 1934.0266,-86 2075.9734,-86 2075.9734,-122"/>
<text text-anchor="middle" x="2005" y="-99.8" font-family="Times,serif" font-size="14.00" fill="#000000">DashboardComponent</text>
</g>
<!-- DashboardComponent&#45;&gt;AdminLayoutModule -->
<g id="edge3" class="edge">
<title>DashboardComponent&#45;&gt;AdminLayoutModule</title>
<path fill="none" stroke="#000000" d="M2005,-122.2228C2005,-142.3652 2005,-172 2005,-172 2005,-172 1189.1133,-172 1189.1133,-172"/>
<polygon fill="#000000" stroke="#000000" points="1189.1133,-168.5001 1179.1133,-172 1189.1133,-175.5001 1189.1133,-168.5001"/>
</g>
<!-- DocumentationComponent -->
<g id="node4" class="node">
<title>DocumentationComponent</title>
<polygon fill="#ffffb3" stroke="#000000" points="1915.6456,-122 1748.3544,-122 1748.3544,-86 1915.6456,-86 1915.6456,-122"/>
<text text-anchor="middle" x="1832" y="-99.8" font-family="Times,serif" font-size="14.00" fill="#000000">DocumentationComponent</text>
</g>
<!-- DocumentationComponent&#45;&gt;AdminLayoutModule -->
<g id="edge4" class="edge">
<title>DocumentationComponent&#45;&gt;AdminLayoutModule</title>
<path fill="none" stroke="#000000" d="M1832,-122.2222C1832,-140.8285 1832,-167 1832,-167 1832,-167 1189.2284,-167 1189.2284,-167"/>
<polygon fill="#000000" stroke="#000000" points="1189.2284,-163.5001 1179.2284,-167 1189.2284,-170.5001 1189.2284,-163.5001"/>
</g>
<!-- OrganizationAddMembersComponent -->
<g id="node5" class="node">
<title>OrganizationAddMembersComponent</title>
<polygon fill="#ffffb3" stroke="#000000" points="1729.8917,-122 1498.1083,-122 1498.1083,-86 1729.8917,-86 1729.8917,-122"/>
<text text-anchor="middle" x="1614" y="-99.8" font-family="Times,serif" font-size="14.00" fill="#000000">OrganizationAddMembersComponent</text>
</g>
<!-- OrganizationAddMembersComponent&#45;&gt;AdminLayoutModule -->
<g id="edge5" class="edge">
<title>OrganizationAddMembersComponent&#45;&gt;AdminLayoutModule</title>
<path fill="none" stroke="#000000" d="M1614,-122.0336C1614,-139.0597 1614,-162 1614,-162 1614,-162 1189.2859,-162 1189.2859,-162"/>
<polygon fill="#000000" stroke="#000000" points="1189.2859,-158.5001 1179.2859,-162 1189.2859,-165.5001 1189.2859,-158.5001"/>
</g>
<!-- OrganizationComponent -->
<g id="node6" class="node">
<title>OrganizationComponent</title>
<polygon fill="#ffffb3" stroke="#000000" points="1480.4158,-122 1325.5842,-122 1325.5842,-86 1480.4158,-86 1480.4158,-122"/>
<text text-anchor="middle" x="1403" y="-99.8" font-family="Times,serif" font-size="14.00" fill="#000000">OrganizationComponent</text>
</g>
<!-- OrganizationComponent&#45;&gt;AdminLayoutModule -->
<g id="edge6" class="edge">
<title>OrganizationComponent&#45;&gt;AdminLayoutModule</title>
<path fill="none" stroke="#000000" d="M1403,-122.2396C1403,-137.5706 1403,-157 1403,-157 1403,-157 1189.0659,-157 1189.0659,-157"/>
<polygon fill="#000000" stroke="#000000" points="1189.0659,-153.5001 1179.0659,-157 1189.0659,-160.5001 1189.0659,-153.5001"/>
</g>
<!-- OrganizationJoinComponent -->
<g id="node7" class="node">
<title>OrganizationJoinComponent</title>
<polygon fill="#ffffb3" stroke="#000000" points="1307.7506,-122 1130.2494,-122 1130.2494,-86 1307.7506,-86 1307.7506,-122"/>
<text text-anchor="middle" x="1219" y="-99.8" font-family="Times,serif" font-size="14.00" fill="#000000">OrganizationJoinComponent</text>
</g>
<!-- OrganizationJoinComponent&#45;&gt;AdminLayoutModule -->
<g id="edge7" class="edge">
<title>OrganizationJoinComponent&#45;&gt;AdminLayoutModule</title>
<path fill="none" stroke="#000000" d="M1154.5863,-122.1061C1154.5863,-122.1061 1154.5863,-140.991 1154.5863,-140.991"/>
<polygon fill="#000000" stroke="#000000" points="1151.0863,-140.9909 1154.5863,-150.991 1158.0863,-140.991 1151.0863,-140.9909"/>
</g>
<!-- OrganizationRegistrationComponent -->
<g id="node8" class="node">
<title>OrganizationRegistrationComponent</title>
<polygon fill="#ffffb3" stroke="#000000" points="1112.3487,-122 889.6513,-122 889.6513,-86 1112.3487,-86 1112.3487,-122"/>
<text text-anchor="middle" x="1001" y="-99.8" font-family="Times,serif" font-size="14.00" fill="#000000">OrganizationRegistrationComponent</text>
</g>
<!-- OrganizationRegistrationComponent&#45;&gt;AdminLayoutModule -->
<g id="edge8" class="edge">
<title>OrganizationRegistrationComponent&#45;&gt;AdminLayoutModule</title>
<path fill="none" stroke="#000000" d="M1076.6883,-122.1061C1076.6883,-122.1061 1076.6883,-140.991 1076.6883,-140.991"/>
<polygon fill="#000000" stroke="#000000" points="1073.1884,-140.9909 1076.6883,-150.991 1080.1884,-140.991 1073.1884,-140.9909"/>
</g>
<!-- ProjectComponent -->
<g id="node9" class="node">
<title>ProjectComponent</title>
<polygon fill="#ffffb3" stroke="#000000" points="871.486,-122 750.514,-122 750.514,-86 871.486,-86 871.486,-122"/>
<text text-anchor="middle" x="811" y="-99.8" font-family="Times,serif" font-size="14.00" fill="#000000">ProjectComponent</text>
</g>
<!-- ProjectComponent&#45;&gt;AdminLayoutModule -->
<g id="edge9" class="edge">
<title>ProjectComponent&#45;&gt;AdminLayoutModule</title>
<path fill="none" stroke="#000000" d="M811,-122.2396C811,-137.5706 811,-157 811,-157 811,-157 1030.6519,-157 1030.6519,-157"/>
<polygon fill="#000000" stroke="#000000" points="1030.6519,-160.5001 1040.6519,-157 1030.6518,-153.5001 1030.6519,-160.5001"/>
</g>
<!-- ProjectsListComponent -->
<g id="node10" class="node">
<title>ProjectsListComponent</title>
<polygon fill="#ffffb3" stroke="#000000" points="732.2091,-122 583.7909,-122 583.7909,-86 732.2091,-86 732.2091,-122"/>
<text text-anchor="middle" x="658" y="-99.8" font-family="Times,serif" font-size="14.00" fill="#000000">ProjectsListComponent</text>
</g>
<!-- ProjectsListComponent&#45;&gt;AdminLayoutModule -->
<g id="edge10" class="edge">
<title>ProjectsListComponent&#45;&gt;AdminLayoutModule</title>
<path fill="none" stroke="#000000" d="M658,-122.0336C658,-139.0597 658,-162 658,-162 658,-162 1030.8589,-162 1030.8589,-162"/>
<polygon fill="#000000" stroke="#000000" points="1030.8589,-165.5001 1040.8589,-162 1030.8589,-158.5001 1030.8589,-165.5001"/>
</g>
<!-- SearchComponent -->
<g id="node11" class="node">
<title>SearchComponent</title>
<polygon fill="#ffffb3" stroke="#000000" points="565.9201,-122 446.0799,-122 446.0799,-86 565.9201,-86 565.9201,-122"/>
<text text-anchor="middle" x="506" y="-99.8" font-family="Times,serif" font-size="14.00" fill="#000000">SearchComponent</text>
</g>
<!-- SearchComponent&#45;&gt;AdminLayoutModule -->
<g id="edge11" class="edge">
<title>SearchComponent&#45;&gt;AdminLayoutModule</title>
<path fill="none" stroke="#000000" d="M506,-122.2222C506,-140.8285 506,-167 506,-167 506,-167 1030.7135,-167 1030.7135,-167"/>
<polygon fill="#000000" stroke="#000000" points="1030.7136,-170.5001 1040.7135,-167 1030.7135,-163.5001 1030.7136,-170.5001"/>
</g>
<!-- SupportComponent -->
<g id="node12" class="node">
<title>SupportComponent</title>
<polygon fill="#ffffb3" stroke="#000000" points="427.6666,-122 302.3334,-122 302.3334,-86 427.6666,-86 427.6666,-122"/>
<text text-anchor="middle" x="365" y="-99.8" font-family="Times,serif" font-size="14.00" fill="#000000">SupportComponent</text>
</g>
<!-- SupportComponent&#45;&gt;AdminLayoutModule -->
<g id="edge12" class="edge">
<title>SupportComponent&#45;&gt;AdminLayoutModule</title>
<path fill="none" stroke="#000000" d="M365,-122.2228C365,-142.3652 365,-172 365,-172 365,-172 1030.9147,-172 1030.9147,-172"/>
<polygon fill="#000000" stroke="#000000" points="1030.9148,-175.5001 1040.9147,-172 1030.9147,-168.5001 1030.9148,-175.5001"/>
</g>
<!-- UserProfileComponent -->
<g id="node13" class="node">
<title>UserProfileComponent</title>
<polygon fill="#ffffb3" stroke="#000000" points="283.8585,-122 138.1415,-122 138.1415,-86 283.8585,-86 283.8585,-122"/>
<text text-anchor="middle" x="211" y="-99.8" font-family="Times,serif" font-size="14.00" fill="#000000">UserProfileComponent</text>
</g>
<!-- UserProfileComponent&#45;&gt;AdminLayoutModule -->
<g id="edge13" class="edge">
<title>UserProfileComponent&#45;&gt;AdminLayoutModule</title>
<path fill="none" stroke="#000000" d="M211,-122.0449C211,-143.6623 211,-177 211,-177 211,-177 1030.9497,-177 1030.9497,-177"/>
<polygon fill="#000000" stroke="#000000" points="1030.9498,-180.5001 1040.9497,-177 1030.9497,-173.5001 1030.9498,-180.5001"/>
</g>
<!-- IconsModule -->
<g id="node15" class="node">
<title>IconsModule</title>
<polygon fill="#8dd3c7" stroke="#000000" points="113.8697,-122 110.8697,-126 89.8697,-126 86.8697,-122 24.1303,-122 24.1303,-86 113.8697,-86 113.8697,-122"/>
<text text-anchor="middle" x="69" y="-99.8" font-family="Times,serif" font-size="14.00" fill="#000000">IconsModule</text>
</g>
<!-- IconsModule&#45;&gt;AdminLayoutModule -->
<g id="edge14" class="edge">
<title>IconsModule&#45;&gt;AdminLayoutModule</title>
<path fill="none" stroke="#000000" d="M69,-122.0908C69,-145.1328 69,-182 69,-182 69,-182 1030.8909,-182 1030.8909,-182"/>
<polygon fill="#000000" stroke="#000000" points="1030.8909,-185.5001 1040.8909,-182 1030.8909,-178.5001 1030.8909,-185.5001"/>
</g>
</g>
</svg>
