<?xml version="1.0" encoding="UTF-8" standalone="no"?>
<!DOCTYPE svg PUBLIC "-//W3C//DTD SVG 1.1//EN"
 "http://www.w3.org/Graphics/SVG/1.1/DTD/svg11.dtd">
<!-- Generated by graphviz version 5.0.0 (20220707.1540)
 -->
<!-- Title: dependencies Pages: 1 -->
<svg width="2238pt" height="239pt"
 viewBox="0.00 0.00 2238.00 238.80" xmlns="http://www.w3.org/2000/svg" xmlns:xlink="http://www.w3.org/1999/xlink">
<g id="graph0" class="graph" transform="scale(1 1) rotate(0) translate(4 234.8)">
<title>dependencies</title>
<polygon fill="white" stroke="transparent" points="-4,4 -4,-234.8 2234,-234.8 2234,4 -4,4"/>
<text text-anchor="middle" x="1115" y="-8.2" font-family="sans-serif" font-size="14.00">dependencies</text>
<g id="clust1" class="cluster">
<title>cluster_AdminLayoutModule</title>
<polygon fill="none" stroke="black" stroke-dasharray="1,5" points="8,-32.8 8,-222.8 2222,-222.8 2222,-32.8 8,-32.8"/>
</g>
<g id="clust15" class="cluster">
<title>cluster_AdminLayoutModule_imports</title>
<polygon fill="none" stroke="black" points="2108,-105.8 2108,-157.8 2214,-157.8 2214,-105.8 2108,-105.8"/>
</g>
<g id="clust2" class="cluster">
<title>cluster_AdminLayoutModule_declarations</title>
<polygon fill="none" stroke="black" points="16,-105.8 16,-157.8 2100,-157.8 2100,-105.8 16,-105.8"/>
</g>
<g id="clust3" class="cluster">
<title>cluster_AdminLayoutModule_ChatComponent_providers</title>
<polygon fill="none" stroke="black" points="1972,-40.8 1972,-92.8 2104,-92.8 2104,-40.8 1972,-40.8"/>
</g>
<!-- ChatComponent -->
<g id="node1" class="node">
<title>ChatComponent</title>
<polygon fill="#ffffb3" stroke="black" points="2091.77,-149.8 1984.23,-149.8 1984.23,-113.8 2091.77,-113.8 2091.77,-149.8"/>
<text text-anchor="middle" x="2038" y="-127.6" font-family="Times,serif" font-size="14.00">ChatComponent</text>
</g>
<!-- AdminLayoutModule -->
<g id="node13" class="node">
<title>AdminLayoutModule</title>
<polygon fill="#8dd3c7" stroke="black" points="1222.1,-214.8 1219.1,-218.8 1198.1,-218.8 1195.1,-214.8 1083.9,-214.8 1083.9,-178.8 1222.1,-178.8 1222.1,-214.8"/>
<text text-anchor="middle" x="1153" y="-192.6" font-family="Times,serif" font-size="14.00">AdminLayoutModule</text>
</g>
<!-- ChatComponent&#45;&gt;AdminLayoutModule -->
<g id="edge1" class="edge">
<title>ChatComponent&#45;&gt;AdminLayoutModule</title>
<path fill="none" stroke="black" d="M2038,-149.84C2038,-171.46 2038,-204.8 2038,-204.8 2038,-204.8 1232.08,-204.8 1232.08,-204.8"/>
<polygon fill="black" stroke="black" points="1232.08,-201.3 1222.08,-204.8 1232.08,-208.3 1232.08,-201.3"/>
</g>
<!-- ContactComponent -->
<g id="node2" class="node">
<title>ContactComponent</title>
<polygon fill="#ffffb3" stroke="black" points="1966.38,-149.8 1841.62,-149.8 1841.62,-113.8 1966.38,-113.8 1966.38,-149.8"/>
<text text-anchor="middle" x="1904" y="-127.6" font-family="Times,serif" font-size="14.00">ContactComponent</text>
</g>
<!-- ContactComponent&#45;&gt;AdminLayoutModule -->
<g id="edge3" class="edge">
<title>ContactComponent&#45;&gt;AdminLayoutModule</title>
<path fill="none" stroke="black" d="M1904,-150.02C1904,-170.17 1904,-199.8 1904,-199.8 1904,-199.8 1232.31,-199.8 1232.31,-199.8"/>
<polygon fill="black" stroke="black" points="1232.31,-196.3 1222.31,-199.8 1232.31,-203.3 1232.31,-196.3"/>
</g>
<!-- DashboardComponent -->
<g id="node3" class="node">
<title>DashboardComponent</title>
<polygon fill="#ffffb3" stroke="black" points="1823.98,-149.8 1682.02,-149.8 1682.02,-113.8 1823.98,-113.8 1823.98,-149.8"/>
<text text-anchor="middle" x="1753" y="-127.6" font-family="Times,serif" font-size="14.00">DashboardComponent</text>
</g>
<!-- DashboardComponent&#45;&gt;AdminLayoutModule -->
<g id="edge4" class="edge">
<title>DashboardComponent&#45;&gt;AdminLayoutModule</title>
<path fill="none" stroke="black" d="M1753,-150.02C1753,-168.63 1753,-194.8 1753,-194.8 1753,-194.8 1232.12,-194.8 1232.12,-194.8"/>
<polygon fill="black" stroke="black" points="1232.12,-191.3 1222.12,-194.8 1232.12,-198.3 1232.12,-191.3"/>
</g>
<!-- OrganizationAddMembersComponent -->
<g id="node4" class="node">
<title>OrganizationAddMembersComponent</title>
<polygon fill="#ffffb3" stroke="black" points="1663.9,-149.8 1432.1,-149.8 1432.1,-113.8 1663.9,-113.8 1663.9,-149.8"/>
<text text-anchor="middle" x="1548" y="-127.6" font-family="Times,serif" font-size="14.00">OrganizationAddMembersComponent</text>
</g>
<!-- OrganizationAddMembersComponent&#45;&gt;AdminLayoutModule -->
<g id="edge5" class="edge">
<title>OrganizationAddMembersComponent&#45;&gt;AdminLayoutModule</title>
<path fill="none" stroke="black" d="M1548,-149.83C1548,-166.86 1548,-189.8 1548,-189.8 1548,-189.8 1232.26,-189.8 1232.26,-189.8"/>
<polygon fill="black" stroke="black" points="1232.26,-186.3 1222.26,-189.8 1232.26,-193.3 1232.26,-186.3"/>
</g>
<!-- OrganizationComponent -->
<g id="node5" class="node">
<title>OrganizationComponent</title>
<polygon fill="#ffffb3" stroke="black" points="1414.41,-149.8 1259.59,-149.8 1259.59,-113.8 1414.41,-113.8 1414.41,-149.8"/>
<text text-anchor="middle" x="1337" y="-127.6" font-family="Times,serif" font-size="14.00">OrganizationComponent</text>
</g>
<!-- OrganizationComponent&#45;&gt;AdminLayoutModule -->
<g id="edge6" class="edge">
<title>OrganizationComponent&#45;&gt;AdminLayoutModule</title>
<path fill="none" stroke="black" d="M1337,-150.04C1337,-165.37 1337,-184.8 1337,-184.8 1337,-184.8 1232.3,-184.8 1232.3,-184.8"/>
<polygon fill="black" stroke="black" points="1232.3,-181.3 1222.3,-184.8 1232.3,-188.3 1232.3,-181.3"/>
</g>
<!-- OrganizationJoinComponent -->
<g id="node6" class="node">
<title>OrganizationJoinComponent</title>
<polygon fill="#ffffb3" stroke="black" points="1241.75,-149.8 1064.25,-149.8 1064.25,-113.8 1241.75,-113.8 1241.75,-149.8"/>
<text text-anchor="middle" x="1153" y="-127.6" font-family="Times,serif" font-size="14.00">OrganizationJoinComponent</text>
</g>
<!-- OrganizationJoinComponent&#45;&gt;AdminLayoutModule -->
<g id="edge7" class="edge">
<title>OrganizationJoinComponent&#45;&gt;AdminLayoutModule</title>
<path fill="none" stroke="black" d="M1153,-149.91C1153,-149.91 1153,-168.79 1153,-168.79"/>
<polygon fill="black" stroke="black" points="1149.5,-168.79 1153,-178.79 1156.5,-168.79 1149.5,-168.79"/>
</g>
<!-- OrganizationRegistrationComponent -->
<g id="node7" class="node">
<title>OrganizationRegistrationComponent</title>
<polygon fill="#ffffb3" stroke="black" points="1046.35,-149.8 823.65,-149.8 823.65,-113.8 1046.35,-113.8 1046.35,-149.8"/>
<text text-anchor="middle" x="935" y="-127.6" font-family="Times,serif" font-size="14.00">OrganizationRegistrationComponent</text>
</g>
<!-- OrganizationRegistrationComponent&#45;&gt;AdminLayoutModule -->
<g id="edge8" class="edge">
<title>OrganizationRegistrationComponent&#45;&gt;AdminLayoutModule</title>
<path fill="none" stroke="black" d="M935,-150.04C935,-165.37 935,-184.8 935,-184.8 935,-184.8 1073.72,-184.8 1073.72,-184.8"/>
<polygon fill="black" stroke="black" points="1073.72,-188.3 1083.72,-184.8 1073.72,-181.3 1073.72,-188.3"/>
</g>
<!-- ProjectComponent -->
<g id="node8" class="node">
<title>ProjectComponent</title>
<polygon fill="#ffffb3" stroke="black" points="805.49,-149.8 684.51,-149.8 684.51,-113.8 805.49,-113.8 805.49,-149.8"/>
<text text-anchor="middle" x="745" y="-127.6" font-family="Times,serif" font-size="14.00">ProjectComponent</text>
</g>
<!-- ProjectComponent&#45;&gt;AdminLayoutModule -->
<g id="edge9" class="edge">
<title>ProjectComponent&#45;&gt;AdminLayoutModule</title>
<path fill="none" stroke="black" d="M745,-149.83C745,-166.86 745,-189.8 745,-189.8 745,-189.8 1073.79,-189.8 1073.79,-189.8"/>
<polygon fill="black" stroke="black" points="1073.79,-193.3 1083.79,-189.8 1073.79,-186.3 1073.79,-193.3"/>
</g>
<!-- ProjectsListComponent -->
<g id="node9" class="node">
<title>ProjectsListComponent</title>
<polygon fill="#ffffb3" stroke="black" points="666.21,-149.8 517.79,-149.8 517.79,-113.8 666.21,-113.8 666.21,-149.8"/>
<text text-anchor="middle" x="592" y="-127.6" font-family="Times,serif" font-size="14.00">ProjectsListComponent</text>
</g>
<!-- ProjectsListComponent&#45;&gt;AdminLayoutModule -->
<g id="edge10" class="edge">
<title>ProjectsListComponent&#45;&gt;AdminLayoutModule</title>
<path fill="none" stroke="black" d="M592,-150.02C592,-168.63 592,-194.8 592,-194.8 592,-194.8 1073.93,-194.8 1073.93,-194.8"/>
<polygon fill="black" stroke="black" points="1073.93,-198.3 1083.93,-194.8 1073.93,-191.3 1073.93,-198.3"/>
</g>
<!-- SupportComponent -->
<g id="node10" class="node">
<title>SupportComponent</title>
<polygon fill="#ffffb3" stroke="black" points="499.67,-149.8 374.33,-149.8 374.33,-113.8 499.67,-113.8 499.67,-149.8"/>
<text text-anchor="middle" x="437" y="-127.6" font-family="Times,serif" font-size="14.00">SupportComponent</text>
</g>
<!-- SupportComponent&#45;&gt;AdminLayoutModule -->
<g id="edge11" class="edge">
<title>SupportComponent&#45;&gt;AdminLayoutModule</title>
<path fill="none" stroke="black" d="M437,-150.02C437,-170.17 437,-199.8 437,-199.8 437,-199.8 1073.7,-199.8 1073.7,-199.8"/>
<polygon fill="black" stroke="black" points="1073.7,-203.3 1083.7,-199.8 1073.7,-196.3 1073.7,-203.3"/>
</g>
<!-- UserDashboardComponent -->
<g id="node11" class="node">
<title>UserDashboardComponent</title>
<polygon fill="#ffffb3" stroke="black" points="356.41,-149.8 187.59,-149.8 187.59,-113.8 356.41,-113.8 356.41,-149.8"/>
<text text-anchor="middle" x="272" y="-127.6" font-family="Times,serif" font-size="14.00">UserDashboardComponent</text>
</g>
<!-- UserDashboardComponent&#45;&gt;AdminLayoutModule -->
<g id="edge12" class="edge">
<title>UserDashboardComponent&#45;&gt;AdminLayoutModule</title>
<path fill="none" stroke="black" d="M272,-149.84C272,-171.46 272,-204.8 272,-204.8 272,-204.8 1073.87,-204.8 1073.87,-204.8"/>
<polygon fill="black" stroke="black" points="1073.87,-208.3 1083.87,-204.8 1073.87,-201.3 1073.87,-208.3"/>
</g>
<!-- UserProfileComponent -->
<g id="node12" class="node">
<title>UserProfileComponent</title>
<polygon fill="#ffffb3" stroke="black" points="169.87,-149.8 24.13,-149.8 24.13,-113.8 169.87,-113.8 169.87,-149.8"/>
<text text-anchor="middle" x="97" y="-127.6" font-family="Times,serif" font-size="14.00">UserProfileComponent</text>
</g>
<!-- UserProfileComponent&#45;&gt;AdminLayoutModule -->
<g id="edge13" class="edge">
<title>UserProfileComponent&#45;&gt;AdminLayoutModule</title>
<path fill="none" stroke="black" d="M97,-149.89C97,-172.93 97,-209.8 97,-209.8 97,-209.8 1073.71,-209.8 1073.71,-209.8"/>
<polygon fill="black" stroke="black" points="1073.71,-213.3 1083.71,-209.8 1073.71,-206.3 1073.71,-213.3"/>
</g>
<!-- ChatService -->
<g id="node14" class="node">
<title>ChatService</title>
<ellipse fill="#fdb462" stroke="black" cx="2038" cy="-66.8" rx="58.46" ry="18"/>
<text text-anchor="middle" x="2038" y="-62.6" font-family="Times,serif" font-size="14.00">ChatService</text>
</g>
<!-- ChatService&#45;&gt;ChatComponent -->
<g id="edge2" class="edge">
<title>ChatService&#45;&gt;ChatComponent</title>
<path fill="none" stroke="black" d="M2038,-84.91C2038,-84.91 2038,-103.79 2038,-103.79"/>
<polygon fill="black" stroke="black" points="2034.5,-103.79 2038,-113.79 2041.5,-103.79 2034.5,-103.79"/>
</g>
<!-- IconsModule -->
<g id="node15" class="node">
<title>IconsModule</title>
<polygon fill="#8dd3c7" stroke="black" points="2205.88,-149.8 2202.88,-153.8 2181.88,-153.8 2178.88,-149.8 2116.12,-149.8 2116.12,-113.8 2205.88,-113.8 2205.88,-149.8"/>
<text text-anchor="middle" x="2161" y="-127.6" font-family="Times,serif" font-size="14.00">IconsModule</text>
</g>
<!-- IconsModule&#45;&gt;AdminLayoutModule -->
<g id="edge14" class="edge">
<title>IconsModule&#45;&gt;AdminLayoutModule</title>
<path fill="none" stroke="black" d="M2161,-149.89C2161,-172.93 2161,-209.8 2161,-209.8 2161,-209.8 1232.28,-209.8 1232.28,-209.8"/>
<polygon fill="black" stroke="black" points="1232.28,-206.3 1222.28,-209.8 1232.28,-213.3 1232.28,-206.3"/>
</g>
</g>
</svg>
