<?xml version="1.0" encoding="UTF-8" standalone="no"?>
<!DOCTYPE svg PUBLIC "-//W3C//DTD SVG 1.1//EN"
 "http://www.w3.org/Graphics/SVG/1.1/DTD/svg11.dtd">
<!-- Generated by graphviz version 5.0.0 (20220707.1540)
 -->
<!-- Title: dependencies Pages: 1 -->
<svg width="2913pt" height="247pt"
 viewBox="0.00 0.00 2913.00 246.80" xmlns="http://www.w3.org/2000/svg" xmlns:xlink="http://www.w3.org/1999/xlink">
<g id="graph0" class="graph" transform="scale(1 1) rotate(0) translate(4 242.8)">
<title>dependencies</title>
<polygon fill="white" stroke="transparent" points="-4,4 -4,-242.8 2909,-242.8 2909,4 -4,4"/>
<text text-anchor="middle" x="1452.5" y="-8.2" font-family="sans-serif" font-size="14.00">dependencies</text>
<g id="clust1" class="cluster">
<title>cluster_AppModule</title>
<polygon fill="none" stroke="black" stroke-dasharray="1,5" points="8,-32.8 8,-230.8 2897,-230.8 2897,-32.8 8,-32.8"/>
</g>
<g id="clust20" class="cluster">
<title>cluster_AppModule_providers</title>
<polygon fill="none" stroke="black" points="2573,-40.8 2573,-92.8 2889,-92.8 2889,-40.8 2573,-40.8"/>
</g>
<g id="clust17" class="cluster">
<title>cluster_AppModule_imports</title>
<polygon fill="none" stroke="black" points="2313,-40.8 2313,-92.8 2565,-92.8 2565,-40.8 2313,-40.8"/>
</g>
<g id="clust2" class="cluster">
<title>cluster_AppModule_declarations</title>
<polygon fill="none" stroke="black" points="16,-40.8 16,-92.8 2305,-92.8 2305,-40.8 16,-40.8"/>
</g>
<g id="clust19" class="cluster">
<title>cluster_AppModule_bootstrap</title>
<polygon fill="none" stroke="black" points="1518,-170.8 1518,-222.8 1642,-222.8 1642,-170.8 1518,-170.8"/>
</g>
<!-- AdminLayoutComponent -->
<g id="node1" class="node">
<title>AdminLayoutComponent</title>
<polygon fill="#ffffb3" stroke="black" points="2296.88,-84.8 2137.12,-84.8 2137.12,-48.8 2296.88,-48.8 2296.88,-84.8"/>
<text text-anchor="middle" x="2217" y="-62.6" font-family="Times,serif" font-size="14.00">AdminLayoutComponent</text>
</g>
<!-- AppModule -->
<g id="node15" class="node">
<title>AppModule</title>
<polygon fill="#8dd3c7" stroke="black" points="1621.66,-149.8 1618.66,-153.8 1597.66,-153.8 1594.66,-149.8 1538.34,-149.8 1538.34,-113.8 1621.66,-113.8 1621.66,-149.8"/>
<text text-anchor="middle" x="1580" y="-127.6" font-family="Times,serif" font-size="14.00">AppModule</text>
</g>
<!-- AdminLayoutComponent&#45;&gt;AppModule -->
<g id="edge1" class="edge">
<title>AdminLayoutComponent&#45;&gt;AppModule</title>
<path fill="none" stroke="black" d="M2217,-84.91C2217,-104.14 2217,-131.8 2217,-131.8 2217,-131.8 1631.8,-131.8 1631.8,-131.8"/>
<polygon fill="black" stroke="black" points="1631.8,-128.3 1621.8,-131.8 1631.8,-135.3 1631.8,-128.3"/>
</g>
<!-- AlertComponent -->
<g id="node2" class="node">
<title>AlertComponent</title>
<polygon fill="#ffffb3" stroke="black" points="2119.1,-84.8 2008.9,-84.8 2008.9,-48.8 2119.1,-48.8 2119.1,-84.8"/>
<text text-anchor="middle" x="2064" y="-62.6" font-family="Times,serif" font-size="14.00">AlertComponent</text>
</g>
<!-- AlertComponent&#45;&gt;AppModule -->
<g id="edge2" class="edge">
<title>AlertComponent&#45;&gt;AppModule</title>
<path fill="none" stroke="black" d="M2064,-85.07C2064,-103.36 2064,-128.8 2064,-128.8 2064,-128.8 1631.68,-128.8 1631.68,-128.8"/>
<polygon fill="black" stroke="black" points="1631.68,-125.3 1621.68,-128.8 1631.68,-132.3 1631.68,-125.3"/>
</g>
<!-- AppComponent -->
<g id="node3" class="node">
<title>AppComponent</title>
<polygon fill="#ffffb3" stroke="black" points="1990.94,-84.8 1885.06,-84.8 1885.06,-48.8 1990.94,-48.8 1990.94,-84.8"/>
<text text-anchor="middle" x="1938" y="-62.6" font-family="Times,serif" font-size="14.00">AppComponent</text>
</g>
<!-- AppComponent&#45;&gt;AppModule -->
<g id="edge3" class="edge">
<title>AppComponent&#45;&gt;AppModule</title>
<path fill="none" stroke="black" d="M1938,-84.83C1938,-101.86 1938,-124.8 1938,-124.8 1938,-124.8 1631.77,-124.8 1631.77,-124.8"/>
<polygon fill="black" stroke="black" points="1631.77,-121.3 1621.77,-124.8 1631.77,-128.3 1631.77,-121.3"/>
</g>
<!-- FooterComponent -->
<g id="node4" class="node">
<title>FooterComponent</title>
<polygon fill="#ffffb3" stroke="black" points="1866.88,-84.8 1749.12,-84.8 1749.12,-48.8 1866.88,-48.8 1866.88,-84.8"/>
<text text-anchor="middle" x="1808" y="-62.6" font-family="Times,serif" font-size="14.00">FooterComponent</text>
</g>
<!-- FooterComponent&#45;&gt;AppModule -->
<g id="edge4" class="edge">
<title>FooterComponent&#45;&gt;AppModule</title>
<path fill="none" stroke="black" d="M1808,-84.81C1808,-100.85 1808,-121.8 1808,-121.8 1808,-121.8 1631.82,-121.8 1631.82,-121.8"/>
<polygon fill="black" stroke="black" points="1631.82,-118.3 1621.82,-121.8 1631.82,-125.3 1631.82,-118.3"/>
</g>
<!-- LoginComponent -->
<g id="node5" class="node">
<title>LoginComponent</title>
<polygon fill="#ffffb3" stroke="black" points="1731.27,-84.8 1616.73,-84.8 1616.73,-48.8 1731.27,-48.8 1731.27,-84.8"/>
<text text-anchor="middle" x="1674" y="-62.6" font-family="Times,serif" font-size="14.00">LoginComponent</text>
</g>
<!-- LoginComponent&#45;&gt;AppModule -->
<g id="edge5" class="edge">
<title>LoginComponent&#45;&gt;AppModule</title>
<path fill="none" stroke="black" d="M1628.15,-84.92C1628.15,-99.58 1628.15,-117.8 1628.15,-117.8 1628.15,-117.8 1627.52,-117.8 1627.52,-117.8"/>
<polygon fill="black" stroke="black" points="1631.86,-114.3 1621.86,-117.8 1631.86,-121.3 1631.86,-114.3"/>
</g>
<!-- ManageTimesheetDetailsComponent -->
<g id="node6" class="node">
<title>ManageTimesheetDetailsComponent</title>
<polygon fill="#ffffb3" stroke="black" points="1598.39,-84.8 1373.61,-84.8 1373.61,-48.8 1598.39,-48.8 1598.39,-84.8"/>
<text text-anchor="middle" x="1486" y="-62.6" font-family="Times,serif" font-size="14.00">ManageTimesheetDetailsComponent</text>
</g>
<!-- ManageTimesheetDetailsComponent&#45;&gt;AppModule -->
<g id="edge6" class="edge">
<title>ManageTimesheetDetailsComponent&#45;&gt;AppModule</title>
<path fill="none" stroke="black" d="M1568.18,-84.91C1568.18,-84.91 1568.18,-103.79 1568.18,-103.79"/>
<polygon fill="black" stroke="black" points="1564.68,-103.79 1568.18,-113.79 1571.68,-103.79 1564.68,-103.79"/>
</g>
<!-- ManageTimesheetsComponent -->
<g id="node7" class="node">
<title>ManageTimesheetsComponent</title>
<polygon fill="#ffffb3" stroke="black" points="1356.18,-84.8 1165.82,-84.8 1165.82,-48.8 1356.18,-48.8 1356.18,-84.8"/>
<text text-anchor="middle" x="1261" y="-62.6" font-family="Times,serif" font-size="14.00">ManageTimesheetsComponent</text>
</g>
<!-- ManageTimesheetsComponent&#45;&gt;AppModule -->
<g id="edge7" class="edge">
<title>ManageTimesheetsComponent&#45;&gt;AppModule</title>
<path fill="none" stroke="black" d="M1261,-84.92C1261,-99.58 1261,-117.8 1261,-117.8 1261,-117.8 1528.3,-117.8 1528.3,-117.8"/>
<polygon fill="black" stroke="black" points="1528.3,-121.3 1538.3,-117.8 1528.3,-114.3 1528.3,-121.3"/>
</g>
<!-- NavbarComponent -->
<g id="node8" class="node">
<title>NavbarComponent</title>
<polygon fill="#ffffb3" stroke="black" points="1148.03,-84.8 1025.97,-84.8 1025.97,-48.8 1148.03,-48.8 1148.03,-84.8"/>
<text text-anchor="middle" x="1087" y="-62.6" font-family="Times,serif" font-size="14.00">NavbarComponent</text>
</g>
<!-- NavbarComponent&#45;&gt;AppModule -->
<g id="edge8" class="edge">
<title>NavbarComponent&#45;&gt;AppModule</title>
<path fill="none" stroke="black" d="M1087,-84.81C1087,-100.85 1087,-121.8 1087,-121.8 1087,-121.8 1527.97,-121.8 1527.97,-121.8"/>
<polygon fill="black" stroke="black" points="1527.97,-125.3 1537.97,-121.8 1527.97,-118.3 1527.97,-125.3"/>
</g>
<!-- NotFoundComponent -->
<g id="node9" class="node">
<title>NotFoundComponent</title>
<polygon fill="#ffffb3" stroke="black" points="1008.12,-84.8 869.88,-84.8 869.88,-48.8 1008.12,-48.8 1008.12,-84.8"/>
<text text-anchor="middle" x="939" y="-62.6" font-family="Times,serif" font-size="14.00">NotFoundComponent</text>
</g>
<!-- NotFoundComponent&#45;&gt;AppModule -->
<g id="edge9" class="edge">
<title>NotFoundComponent&#45;&gt;AppModule</title>
<path fill="none" stroke="black" d="M939,-84.82C939,-102.17 939,-125.8 939,-125.8 939,-125.8 1527.94,-125.8 1527.94,-125.8"/>
<polygon fill="black" stroke="black" points="1527.94,-129.3 1537.94,-125.8 1527.94,-122.3 1527.94,-129.3"/>
</g>
<!-- RegisterComponent -->
<g id="node10" class="node">
<title>RegisterComponent</title>
<polygon fill="#ffffb3" stroke="black" points="851.99,-84.8 724.01,-84.8 724.01,-48.8 851.99,-48.8 851.99,-84.8"/>
<text text-anchor="middle" x="788" y="-62.6" font-family="Times,serif" font-size="14.00">RegisterComponent</text>
</g>
<!-- RegisterComponent&#45;&gt;AppModule -->
<g id="edge10" class="edge">
<title>RegisterComponent&#45;&gt;AppModule</title>
<path fill="none" stroke="black" d="M788,-85.02C788,-103.63 788,-129.8 788,-129.8 788,-129.8 1528.26,-129.8 1528.26,-129.8"/>
<polygon fill="black" stroke="black" points="1528.26,-133.3 1538.26,-129.8 1528.26,-126.3 1528.26,-133.3"/>
</g>
<!-- SidebarComponent -->
<g id="node11" class="node">
<title>SidebarComponent</title>
<polygon fill="#ffffb3" stroke="black" points="706.1,-84.8 581.9,-84.8 581.9,-48.8 706.1,-48.8 706.1,-84.8"/>
<text text-anchor="middle" x="644" y="-62.6" font-family="Times,serif" font-size="14.00">SidebarComponent</text>
</g>
<!-- SidebarComponent&#45;&gt;AppModule -->
<g id="edge11" class="edge">
<title>SidebarComponent&#45;&gt;AppModule</title>
<path fill="none" stroke="black" d="M644,-85.11C644,-104.95 644,-133.8 644,-133.8 644,-133.8 1528.27,-133.8 1528.27,-133.8"/>
<polygon fill="black" stroke="black" points="1528.27,-137.3 1538.27,-133.8 1528.27,-130.3 1528.27,-137.3"/>
</g>
<!-- TimesheetDetailsComponent -->
<g id="node12" class="node">
<title>TimesheetDetailsComponent</title>
<polygon fill="#ffffb3" stroke="black" points="563.8,-84.8 384.2,-84.8 384.2,-48.8 563.8,-48.8 563.8,-84.8"/>
<text text-anchor="middle" x="474" y="-62.6" font-family="Times,serif" font-size="14.00">TimesheetDetailsComponent</text>
</g>
<!-- TimesheetDetailsComponent&#45;&gt;AppModule -->
<g id="edge12" class="edge">
<title>TimesheetDetailsComponent&#45;&gt;AppModule</title>
<path fill="none" stroke="black" d="M474,-85.08C474,-106.12 474,-137.8 474,-137.8 474,-137.8 1528.33,-137.8 1528.33,-137.8"/>
<polygon fill="black" stroke="black" points="1528.33,-141.3 1538.33,-137.8 1528.33,-134.3 1528.33,-141.3"/>
</g>
<!-- TimesheetsListComponent -->
<g id="node13" class="node">
<title>TimesheetsListComponent</title>
<polygon fill="#ffffb3" stroke="black" points="366.37,-84.8 199.63,-84.8 199.63,-48.8 366.37,-48.8 366.37,-84.8"/>
<text text-anchor="middle" x="283" y="-62.6" font-family="Times,serif" font-size="14.00">TimesheetsListComponent</text>
</g>
<!-- TimesheetsListComponent&#45;&gt;AppModule -->
<g id="edge13" class="edge">
<title>TimesheetsListComponent&#45;&gt;AppModule</title>
<path fill="none" stroke="black" d="M283,-84.96C283,-107.15 283,-141.8 283,-141.8 283,-141.8 1528.32,-141.8 1528.32,-141.8"/>
<polygon fill="black" stroke="black" points="1528.32,-145.3 1538.32,-141.8 1528.32,-138.3 1528.32,-145.3"/>
</g>
<!-- UnauthorizedComponent -->
<g id="node14" class="node">
<title>UnauthorizedComponent</title>
<polygon fill="#ffffb3" stroke="black" points="181.53,-84.8 24.47,-84.8 24.47,-48.8 181.53,-48.8 181.53,-84.8"/>
<text text-anchor="middle" x="103" y="-62.6" font-family="Times,serif" font-size="14.00">UnauthorizedComponent</text>
</g>
<!-- UnauthorizedComponent&#45;&gt;AppModule -->
<g id="edge14" class="edge">
<title>UnauthorizedComponent&#45;&gt;AppModule</title>
<path fill="none" stroke="black" d="M103,-85.12C103,-108.46 103,-145.8 103,-145.8 103,-145.8 1528.18,-145.8 1528.18,-145.8"/>
<polygon fill="black" stroke="black" points="1528.18,-149.3 1538.18,-145.8 1528.18,-142.3 1528.18,-149.3"/>
</g>
<!-- AppComponent  -->
<g id="node18" class="node">
<title>AppComponent </title>
<polygon fill="#80b1d3" stroke="black" points="1634.44,-214.8 1525.56,-214.8 1525.56,-178.8 1634.44,-178.8 1634.44,-214.8"/>
<text text-anchor="middle" x="1580" y="-192.6" font-family="Times,serif" font-size="14.00">AppComponent </text>
</g>
<!-- AppModule&#45;&gt;AppComponent  -->
<g id="edge17" class="edge">
<title>AppModule&#45;&gt;AppComponent </title>
<path fill="none" stroke="black" stroke-dasharray="1,5" d="M1580,-149.91C1580,-149.91 1580,-168.79 1580,-168.79"/>
<polygon fill="black" stroke="black" points="1576.5,-168.79 1580,-178.79 1583.5,-168.79 1576.5,-168.79"/>
</g>
<!-- AppRoutingModule -->
<g id="node16" class="node">
<title>AppRoutingModule</title>
<polygon fill="#8dd3c7" stroke="black" points="2557.28,-84.8 2554.28,-88.8 2533.28,-88.8 2530.28,-84.8 2428.72,-84.8 2428.72,-48.8 2557.28,-48.8 2557.28,-84.8"/>
<text text-anchor="middle" x="2493" y="-62.6" font-family="Times,serif" font-size="14.00">AppRoutingModule</text>
</g>
<!-- AppRoutingModule&#45;&gt;AppModule -->
<g id="edge15" class="edge">
<title>AppRoutingModule&#45;&gt;AppModule</title>
<path fill="none" stroke="black" d="M2493,-84.84C2493,-106.46 2493,-139.8 2493,-139.8 2493,-139.8 1631.9,-139.8 1631.9,-139.8"/>
<polygon fill="black" stroke="black" points="1631.9,-136.3 1621.9,-139.8 1631.9,-143.3 1631.9,-136.3"/>
</g>
<!-- IconsModule -->
<g id="node17" class="node">
<title>IconsModule</title>
<polygon fill="#8dd3c7" stroke="black" points="2410.88,-84.8 2407.88,-88.8 2386.88,-88.8 2383.88,-84.8 2321.12,-84.8 2321.12,-48.8 2410.88,-48.8 2410.88,-84.8"/>
<text text-anchor="middle" x="2366" y="-62.6" font-family="Times,serif" font-size="14.00">IconsModule</text>
</g>
<!-- IconsModule&#45;&gt;AppModule -->
<g id="edge16" class="edge">
<title>IconsModule&#45;&gt;AppModule</title>
<path fill="none" stroke="black" d="M2366,-84.93C2366,-105.37 2366,-135.8 2366,-135.8 2366,-135.8 1631.7,-135.8 1631.7,-135.8"/>
<polygon fill="black" stroke="black" points="1631.7,-132.3 1621.7,-135.8 1631.7,-139.3 1631.7,-132.3"/>
</g>
<!-- ErrorInterceptor -->
<g id="node19" class="node">
<title>ErrorInterceptor</title>
<ellipse fill="#fdb462" stroke="black" cx="2807" cy="-66.8" rx="73.54" ry="18"/>
<text text-anchor="middle" x="2807" y="-62.6" font-family="Times,serif" font-size="14.00">ErrorInterceptor</text>
</g>
<!-- ErrorInterceptor&#45;&gt;AppModule -->
<g id="edge18" class="edge">
<title>ErrorInterceptor&#45;&gt;AppModule</title>
<path fill="none" stroke="black" d="M2807,-84.95C2807,-108.56 2807,-146.8 2807,-146.8 2807,-146.8 1631.88,-146.8 1631.88,-146.8"/>
<polygon fill="black" stroke="black" points="1631.88,-143.3 1621.88,-146.8 1631.88,-150.3 1631.88,-143.3"/>
</g>
<!-- JwtInterceptor -->
<g id="node20" class="node">
<title>JwtInterceptor</title>
<ellipse fill="#fdb462" stroke="black" cx="2648" cy="-66.8" rx="66.62" ry="18"/>
<text text-anchor="middle" x="2648" y="-62.6" font-family="Times,serif" font-size="14.00">JwtInterceptor</text>
</g>
<!-- JwtInterceptor&#45;&gt;AppModule -->
<g id="edge19" class="edge">
<title>JwtInterceptor&#45;&gt;AppModule</title>
<path fill="none" stroke="black" d="M2648,-84.81C2648,-107.29 2648,-142.8 2648,-142.8 2648,-142.8 1631.87,-142.8 1631.87,-142.8"/>
<polygon fill="black" stroke="black" points="1631.87,-139.3 1621.87,-142.8 1631.87,-146.3 1631.87,-139.3"/>
</g>
</g>
</svg>
