<?xml version="1.0" encoding="UTF-8" standalone="no"?>
<!DOCTYPE svg PUBLIC "-//W3C//DTD SVG 1.1//EN"
 "http://www.w3.org/Graphics/SVG/1.1/DTD/svg11.dtd">
<!-- Generated by graphviz version 2.40.1 (20161225.0304)
 -->
<!-- Title: dependencies Pages: 1 -->
<svg width="2081pt" height="284pt"
 viewBox="0.00 0.00 2081.00 284.00" xmlns="http://www.w3.org/2000/svg" xmlns:xlink="http://www.w3.org/1999/xlink">
<g id="graph0" class="graph" transform="scale(1 1) rotate(0) translate(4 280)">
<title>dependencies</title>
<polygon fill="#ffffff" stroke="transparent" points="-4,4 -4,-280 2077,-280 2077,4 -4,4"/>
<text text-anchor="start" x="1015.5091" y="-42.4" font-family="sans-serif" font-weight="bold" font-size="14.00" fill="#000000">Legend</text>
<polygon fill="#ffffb3" stroke="transparent" points="802.5,-10 802.5,-30 822.5,-30 822.5,-10 802.5,-10"/>
<text text-anchor="start" x="826.129" y="-15.4" font-family="sans-serif" font-size="14.00" fill="#000000"> &#160;Declarations</text>
<polygon fill="#8dd3c7" stroke="transparent" points="915.5,-10 915.5,-30 935.5,-30 935.5,-10 915.5,-10"/>
<text text-anchor="start" x="939.2251" y="-15.4" font-family="sans-serif" font-size="14.00" fill="#000000"> &#160;Module</text>
<polygon fill="#80b1d3" stroke="transparent" points="1001.5,-10 1001.5,-30 1021.5,-30 1021.5,-10 1001.5,-10"/>
<text text-anchor="start" x="1025.2812" y="-15.4" font-family="sans-serif" font-size="14.00" fill="#000000"> &#160;Bootstrap</text>
<polygon fill="#fdb462" stroke="transparent" points="1098.5,-10 1098.5,-30 1118.5,-30 1118.5,-10 1098.5,-10"/>
<text text-anchor="start" x="1122.1732" y="-15.4" font-family="sans-serif" font-size="14.00" fill="#000000"> &#160;Providers</text>
<polygon fill="#fb8072" stroke="transparent" points="1194.5,-10 1194.5,-30 1214.5,-30 1214.5,-10 1194.5,-10"/>
<text text-anchor="start" x="1218.2258" y="-15.4" font-family="sans-serif" font-size="14.00" fill="#000000"> &#160;Exports</text>
<g id="clust1" class="cluster">
<title>cluster_AppModule</title>
<polygon fill="none" stroke="#000000" stroke-dasharray="1,5" points="8,-70 8,-268 2065,-268 2065,-70 8,-70"/>
</g>
<g id="clust2" class="cluster">
<title>cluster_AppModule_declarations</title>
<polygon fill="none" stroke="#000000" points="600,-78 600,-130 2057,-130 2057,-78 600,-78"/>
</g>
<g id="clust13" class="cluster">
<title>cluster_AppModule_imports</title>
<polygon fill="none" stroke="#000000" points="340,-78 340,-130 592,-130 592,-78 340,-78"/>
</g>
<g id="clust15" class="cluster">
<title>cluster_AppModule_bootstrap</title>
<polygon fill="none" stroke="#000000" points="1003,-208 1003,-260 1127,-260 1127,-208 1003,-208"/>
</g>
<g id="clust16" class="cluster">
<title>cluster_AppModule_providers</title>
<polygon fill="none" stroke="#000000" points="16,-78 16,-130 332,-130 332,-78 16,-78"/>
</g>
<!-- AdminLayoutComponent -->
<g id="node1" class="node">
<title>AdminLayoutComponent</title>
<polygon fill="#ffffb3" stroke="#000000" points="2048.878,-122 1889.122,-122 1889.122,-86 2048.878,-86 2048.878,-122"/>
<text text-anchor="middle" x="1969" y="-99.8" font-family="Times,serif" font-size="14.00" fill="#000000">AdminLayoutComponent</text>
</g>
<!-- AppModule -->
<g id="node11" class="node">
<title>AppModule</title>
<polygon fill="#8dd3c7" stroke="#000000" points="1106.6571,-187 1103.6571,-191 1082.6571,-191 1079.6571,-187 1023.3429,-187 1023.3429,-151 1106.6571,-151 1106.6571,-187"/>
<text text-anchor="middle" x="1065" y="-164.8" font-family="Times,serif" font-size="14.00" fill="#000000">AppModule</text>
</g>
<!-- AdminLayoutComponent&#45;&gt;AppModule -->
<g id="edge1" class="edge">
<title>AdminLayoutComponent&#45;&gt;AppModule</title>
<path fill="none" stroke="#000000" d="M1969,-122.0908C1969,-145.1328 1969,-182 1969,-182 1969,-182 1116.7888,-182 1116.7888,-182"/>
<polygon fill="#000000" stroke="#000000" points="1116.7888,-178.5001 1106.7888,-182 1116.7887,-185.5001 1116.7888,-178.5001"/>
</g>
<!-- AlertComponent -->
<g id="node2" class="node">
<title>AlertComponent</title>
<polygon fill="#ffffb3" stroke="#000000" points="1871.0954,-122 1760.9046,-122 1760.9046,-86 1871.0954,-86 1871.0954,-122"/>
<text text-anchor="middle" x="1816" y="-99.8" font-family="Times,serif" font-size="14.00" fill="#000000">AlertComponent</text>
</g>
<!-- AlertComponent&#45;&gt;AppModule -->
<g id="edge2" class="edge">
<title>AlertComponent&#45;&gt;AppModule</title>
<path fill="none" stroke="#000000" d="M1816,-122.0449C1816,-143.6623 1816,-177 1816,-177 1816,-177 1116.7161,-177 1116.7161,-177"/>
<polygon fill="#000000" stroke="#000000" points="1116.7162,-173.5001 1106.7161,-177 1116.7161,-180.5001 1116.7162,-173.5001"/>
</g>
<!-- AppComponent -->
<g id="node3" class="node">
<title>AppComponent</title>
<polygon fill="#ffffb3" stroke="#000000" points="1742.9399,-122 1637.0601,-122 1637.0601,-86 1742.9399,-86 1742.9399,-122"/>
<text text-anchor="middle" x="1690" y="-99.8" font-family="Times,serif" font-size="14.00" fill="#000000">AppComponent</text>
</g>
<!-- AppComponent&#45;&gt;AppModule -->
<g id="edge3" class="edge">
<title>AppComponent&#45;&gt;AppModule</title>
<path fill="none" stroke="#000000" d="M1690,-122.2228C1690,-142.3652 1690,-172 1690,-172 1690,-172 1116.9785,-172 1116.9785,-172"/>
<polygon fill="#000000" stroke="#000000" points="1116.9785,-168.5001 1106.9785,-172 1116.9785,-175.5001 1116.9785,-168.5001"/>
</g>
<!-- FooterComponent -->
<g id="node4" class="node">
<title>FooterComponent</title>
<polygon fill="#ffffb3" stroke="#000000" points="1618.8809,-122 1501.1191,-122 1501.1191,-86 1618.8809,-86 1618.8809,-122"/>
<text text-anchor="middle" x="1560" y="-99.8" font-family="Times,serif" font-size="14.00" fill="#000000">FooterComponent</text>
</g>
<!-- FooterComponent&#45;&gt;AppModule -->
<g id="edge4" class="edge">
<title>FooterComponent&#45;&gt;AppModule</title>
<path fill="none" stroke="#000000" d="M1560,-122.2222C1560,-140.8285 1560,-167 1560,-167 1560,-167 1116.7768,-167 1116.7768,-167"/>
<polygon fill="#000000" stroke="#000000" points="1116.7768,-163.5001 1106.7768,-167 1116.7768,-170.5001 1116.7768,-163.5001"/>
</g>
<!-- LoginComponent -->
<g id="node5" class="node">
<title>LoginComponent</title>
<polygon fill="#ffffb3" stroke="#000000" points="1483.2758,-122 1368.7242,-122 1368.7242,-86 1483.2758,-86 1483.2758,-122"/>
<text text-anchor="middle" x="1426" y="-99.8" font-family="Times,serif" font-size="14.00" fill="#000000">LoginComponent</text>
</g>
<!-- LoginComponent&#45;&gt;AppModule -->
<g id="edge5" class="edge">
<title>LoginComponent&#45;&gt;AppModule</title>
<path fill="none" stroke="#000000" d="M1426,-122.0336C1426,-139.0597 1426,-162 1426,-162 1426,-162 1116.764,-162 1116.764,-162"/>
<polygon fill="#000000" stroke="#000000" points="1116.764,-158.5001 1106.764,-162 1116.7639,-165.5001 1116.764,-158.5001"/>
</g>
<!-- NavbarComponent -->
<g id="node6" class="node">
<title>NavbarComponent</title>
<polygon fill="#ffffb3" stroke="#000000" points="1350.0297,-122 1227.9703,-122 1227.9703,-86 1350.0297,-86 1350.0297,-122"/>
<text text-anchor="middle" x="1289" y="-99.8" font-family="Times,serif" font-size="14.00" fill="#000000">NavbarComponent</text>
</g>
<!-- NavbarComponent&#45;&gt;AppModule -->
<g id="edge6" class="edge">
<title>NavbarComponent&#45;&gt;AppModule</title>
<path fill="none" stroke="#000000" d="M1289,-122.2396C1289,-137.5706 1289,-157 1289,-157 1289,-157 1116.8699,-157 1116.8699,-157"/>
<polygon fill="#000000" stroke="#000000" points="1116.87,-153.5001 1106.8699,-157 1116.8699,-160.5001 1116.87,-153.5001"/>
</g>
<!-- NotFoundComponent -->
<g id="node7" class="node">
<title>NotFoundComponent</title>
<polygon fill="#ffffb3" stroke="#000000" points="1210.1122,-122 1071.8878,-122 1071.8878,-86 1210.1122,-86 1210.1122,-122"/>
<text text-anchor="middle" x="1141" y="-99.8" font-family="Times,serif" font-size="14.00" fill="#000000">NotFoundComponent</text>
</g>
<!-- NotFoundComponent&#45;&gt;AppModule -->
<g id="edge7" class="edge">
<title>NotFoundComponent&#45;&gt;AppModule</title>
<path fill="none" stroke="#000000" d="M1089.3861,-122.1061C1089.3861,-122.1061 1089.3861,-140.991 1089.3861,-140.991"/>
<polygon fill="#000000" stroke="#000000" points="1085.8861,-140.9909 1089.3861,-150.991 1092.8861,-140.991 1085.8861,-140.9909"/>
</g>
<!-- RegisterComponent -->
<g id="node8" class="node">
<title>RegisterComponent</title>
<polygon fill="#ffffb3" stroke="#000000" points="1053.9846,-122 926.0154,-122 926.0154,-86 1053.9846,-86 1053.9846,-122"/>
<text text-anchor="middle" x="990" y="-99.8" font-family="Times,serif" font-size="14.00" fill="#000000">RegisterComponent</text>
</g>
<!-- RegisterComponent&#45;&gt;AppModule -->
<g id="edge8" class="edge">
<title>RegisterComponent&#45;&gt;AppModule</title>
<path fill="none" stroke="#000000" d="M1038.5821,-122.1061C1038.5821,-122.1061 1038.5821,-140.991 1038.5821,-140.991"/>
<polygon fill="#000000" stroke="#000000" points="1035.0821,-140.9909 1038.5821,-150.991 1042.0821,-140.991 1035.0821,-140.9909"/>
</g>
<!-- SidebarComponent -->
<g id="node9" class="node">
<title>SidebarComponent</title>
<polygon fill="#ffffb3" stroke="#000000" points="908.0954,-122 783.9046,-122 783.9046,-86 908.0954,-86 908.0954,-122"/>
<text text-anchor="middle" x="846" y="-99.8" font-family="Times,serif" font-size="14.00" fill="#000000">SidebarComponent</text>
</g>
<!-- SidebarComponent&#45;&gt;AppModule -->
<g id="edge9" class="edge">
<title>SidebarComponent&#45;&gt;AppModule</title>
<path fill="none" stroke="#000000" d="M846,-122.2396C846,-137.5706 846,-157 846,-157 846,-157 1013.2923,-157 1013.2923,-157"/>
<polygon fill="#000000" stroke="#000000" points="1013.2923,-160.5001 1023.2923,-157 1013.2923,-153.5001 1013.2923,-160.5001"/>
</g>
<!-- UnauthorizedComponent -->
<g id="node10" class="node">
<title>UnauthorizedComponent</title>
<polygon fill="#ffffb3" stroke="#000000" points="765.5253,-122 608.4747,-122 608.4747,-86 765.5253,-86 765.5253,-122"/>
<text text-anchor="middle" x="687" y="-99.8" font-family="Times,serif" font-size="14.00" fill="#000000">UnauthorizedComponent</text>
</g>
<!-- UnauthorizedComponent&#45;&gt;AppModule -->
<g id="edge10" class="edge">
<title>UnauthorizedComponent&#45;&gt;AppModule</title>
<path fill="none" stroke="#000000" d="M687,-122.0336C687,-139.0597 687,-162 687,-162 687,-162 1013.1031,-162 1013.1031,-162"/>
<polygon fill="#000000" stroke="#000000" points="1013.1032,-165.5001 1023.1031,-162 1013.1031,-158.5001 1013.1032,-165.5001"/>
</g>
<!-- AppComponent  -->
<g id="node14" class="node">
<title>AppComponent </title>
<polygon fill="#80b1d3" stroke="#000000" points="1119.439,-252 1010.561,-252 1010.561,-216 1119.439,-216 1119.439,-252"/>
<text text-anchor="middle" x="1065" y="-229.8" font-family="Times,serif" font-size="14.00" fill="#000000">AppComponent </text>
</g>
<!-- AppModule&#45;&gt;AppComponent  -->
<g id="edge13" class="edge">
<title>AppModule&#45;&gt;AppComponent </title>
<path fill="none" stroke="#000000" stroke-dasharray="1,5" d="M1065,-187.1061C1065,-187.1061 1065,-205.991 1065,-205.991"/>
<polygon fill="#000000" stroke="#000000" points="1061.5001,-205.9909 1065,-215.991 1068.5001,-205.991 1061.5001,-205.9909"/>
</g>
<!-- AppRoutingModule -->
<g id="node12" class="node">
<title>AppRoutingModule</title>
<polygon fill="#8dd3c7" stroke="#000000" points="584.2744,-122 581.2744,-126 560.2744,-126 557.2744,-122 455.7256,-122 455.7256,-86 584.2744,-86 584.2744,-122"/>
<text text-anchor="middle" x="520" y="-99.8" font-family="Times,serif" font-size="14.00" fill="#000000">AppRoutingModule</text>
</g>
<!-- AppRoutingModule&#45;&gt;AppModule -->
<g id="edge11" class="edge">
<title>AppRoutingModule&#45;&gt;AppModule</title>
<path fill="none" stroke="#000000" d="M520,-122.2222C520,-140.8285 520,-167 520,-167 520,-167 1013.1397,-167 1013.1397,-167"/>
<polygon fill="#000000" stroke="#000000" points="1013.1397,-170.5001 1023.1397,-167 1013.1397,-163.5001 1013.1397,-170.5001"/>
</g>
<!-- IconsModule -->
<g id="node13" class="node">
<title>IconsModule</title>
<polygon fill="#8dd3c7" stroke="#000000" points="437.8697,-122 434.8697,-126 413.8697,-126 410.8697,-122 348.1303,-122 348.1303,-86 437.8697,-86 437.8697,-122"/>
<text text-anchor="middle" x="393" y="-99.8" font-family="Times,serif" font-size="14.00" fill="#000000">IconsModule</text>
</g>
<!-- IconsModule&#45;&gt;AppModule -->
<g id="edge12" class="edge">
<title>IconsModule&#45;&gt;AppModule</title>
<path fill="none" stroke="#000000" d="M393,-122.2228C393,-142.3652 393,-172 393,-172 393,-172 1013.2173,-172 1013.2173,-172"/>
<polygon fill="#000000" stroke="#000000" points="1013.2173,-175.5001 1023.2173,-172 1013.2173,-168.5001 1013.2173,-175.5001"/>
</g>
<!-- ErrorInterceptor -->
<g id="node15" class="node">
<title>ErrorInterceptor</title>
<ellipse fill="#fdb462" stroke="#000000" cx="250" cy="-104" rx="73.5329" ry="18"/>
<text text-anchor="middle" x="250" y="-99.8" font-family="Times,serif" font-size="14.00" fill="#000000">ErrorInterceptor</text>
</g>
<!-- ErrorInterceptor&#45;&gt;AppModule -->
<g id="edge14" class="edge">
<title>ErrorInterceptor&#45;&gt;AppModule</title>
<path fill="none" stroke="#000000" d="M250,-122.0449C250,-143.6623 250,-177 250,-177 250,-177 1013.1813,-177 1013.1813,-177"/>
<polygon fill="#000000" stroke="#000000" points="1013.1814,-180.5001 1023.1813,-177 1013.1813,-173.5001 1013.1814,-180.5001"/>
</g>
<!-- JwtInterceptor -->
<g id="node16" class="node">
<title>JwtInterceptor</title>
<ellipse fill="#fdb462" stroke="#000000" cx="91" cy="-104" rx="66.6094" ry="18"/>
<text text-anchor="middle" x="91" y="-99.8" font-family="Times,serif" font-size="14.00" fill="#000000">JwtInterceptor</text>
</g>
<!-- JwtInterceptor&#45;&gt;AppModule -->
<g id="edge15" class="edge">
<title>JwtInterceptor&#45;&gt;AppModule</title>
<path fill="none" stroke="#000000" d="M91,-122.0908C91,-145.1328 91,-182 91,-182 91,-182 1013.1484,-182 1013.1484,-182"/>
<polygon fill="#000000" stroke="#000000" points="1013.1485,-185.5001 1023.1484,-182 1013.1484,-178.5001 1013.1485,-185.5001"/>
</g>
</g>
</svg>
