<?xml version="1.0" encoding="UTF-8" standalone="no"?>
<!DOCTYPE svg PUBLIC "-//W3C//DTD SVG 1.1//EN"
 "http://www.w3.org/Graphics/SVG/1.1/DTD/svg11.dtd">
<!-- Generated by graphviz version 2.40.1 (20161225.0304)
 -->
<!-- Title: dependencies Pages: 1 -->
<svg width="4333pt" height="284pt"
 viewBox="0.00 0.00 4333.00 284.00" xmlns="http://www.w3.org/2000/svg" xmlns:xlink="http://www.w3.org/1999/xlink">
<g id="graph0" class="graph" transform="scale(1 1) rotate(0) translate(4 280)">
<title>dependencies</title>
<polygon fill="#ffffff" stroke="transparent" points="-4,4 -4,-280 4329,-280 4329,4 -4,4"/>
<text text-anchor="start" x="2141.5091" y="-42.4" font-family="sans-serif" font-weight="bold" font-size="14.00" fill="#000000">Legend</text>
<polygon fill="#ffffb3" stroke="transparent" points="1928.5,-10 1928.5,-30 1948.5,-30 1948.5,-10 1928.5,-10"/>
<text text-anchor="start" x="1952.129" y="-15.4" font-family="sans-serif" font-size="14.00" fill="#000000"> &#160;Declarations</text>
<polygon fill="#8dd3c7" stroke="transparent" points="2041.5,-10 2041.5,-30 2061.5,-30 2061.5,-10 2041.5,-10"/>
<text text-anchor="start" x="2065.2251" y="-15.4" font-family="sans-serif" font-size="14.00" fill="#000000"> &#160;Module</text>
<polygon fill="#80b1d3" stroke="transparent" points="2127.5,-10 2127.5,-30 2147.5,-30 2147.5,-10 2127.5,-10"/>
<text text-anchor="start" x="2151.2812" y="-15.4" font-family="sans-serif" font-size="14.00" fill="#000000"> &#160;Bootstrap</text>
<polygon fill="#fdb462" stroke="transparent" points="2224.5,-10 2224.5,-30 2244.5,-30 2244.5,-10 2224.5,-10"/>
<text text-anchor="start" x="2248.1732" y="-15.4" font-family="sans-serif" font-size="14.00" fill="#000000"> &#160;Providers</text>
<polygon fill="#fb8072" stroke="transparent" points="2320.5,-10 2320.5,-30 2340.5,-30 2340.5,-10 2320.5,-10"/>
<text text-anchor="start" x="2344.2258" y="-15.4" font-family="sans-serif" font-size="14.00" fill="#000000"> &#160;Exports</text>
<g id="clust1" class="cluster">
<title>cluster_AdminLayoutModule</title>
<polygon fill="none" stroke="#000000" stroke-dasharray="1,5" points="8,-70 8,-195 2360,-195 2360,-70 8,-70"/>
</g>
<g id="clust2" class="cluster">
<title>cluster_AdminLayoutModule_declarations</title>
<polygon fill="none" stroke="#000000" points="16,-78 16,-130 2238,-130 2238,-78 16,-78"/>
</g>
<g id="clust16" class="cluster">
<title>cluster_AdminLayoutModule_imports</title>
<polygon fill="none" stroke="#000000" points="2246,-78 2246,-130 2352,-130 2352,-78 2246,-78"/>
</g>
<g id="clust20" class="cluster">
<title>cluster_AppModule</title>
<polygon fill="none" stroke="#000000" stroke-dasharray="1,5" points="2368,-70 2368,-268 4317,-268 4317,-70 2368,-70"/>
</g>
<g id="clust21" class="cluster">
<title>cluster_AppModule_declarations</title>
<polygon fill="none" stroke="#000000" points="2852,-78 2852,-130 4309,-130 4309,-78 2852,-78"/>
</g>
<g id="clust32" class="cluster">
<title>cluster_AppModule_imports</title>
<polygon fill="none" stroke="#000000" points="2700,-78 2700,-130 2844,-130 2844,-78 2700,-78"/>
</g>
<g id="clust34" class="cluster">
<title>cluster_AppModule_bootstrap</title>
<polygon fill="none" stroke="#000000" points="3255,-208 3255,-260 3379,-260 3379,-208 3255,-208"/>
</g>
<g id="clust35" class="cluster">
<title>cluster_AppModule_providers</title>
<polygon fill="none" stroke="#000000" points="2376,-78 2376,-130 2692,-130 2692,-78 2376,-78"/>
</g>
<!-- ChatComponent -->
<g id="node1" class="node">
<title>ChatComponent</title>
<polygon fill="#ffffb3" stroke="#000000" points="2229.7744,-122 2122.2256,-122 2122.2256,-86 2229.7744,-86 2229.7744,-122"/>
<text text-anchor="middle" x="2176" y="-99.8" font-family="Times,serif" font-size="14.00" fill="#000000">ChatComponent</text>
</g>
<!-- AdminLayoutModule -->
<g id="node14" class="node">
<title>AdminLayoutModule</title>
<polygon fill="#8dd3c7" stroke="#000000" points="1266.0954,-187 1263.0954,-191 1242.0954,-191 1239.0954,-187 1127.9046,-187 1127.9046,-151 1266.0954,-151 1266.0954,-187"/>
<text text-anchor="middle" x="1197" y="-164.8" font-family="Times,serif" font-size="14.00" fill="#000000">AdminLayoutModule</text>
</g>
<!-- ChatComponent&#45;&gt;AdminLayoutModule -->
<g id="edge1" class="edge">
<title>ChatComponent&#45;&gt;AdminLayoutModule</title>
<path fill="none" stroke="#000000" d="M2176,-122.302C2176,-140.2699 2176,-165 2176,-165 2176,-165 1276.2314,-165 1276.2314,-165"/>
<polygon fill="#000000" stroke="#000000" points="1276.2315,-161.5001 1266.2314,-165 1276.2314,-168.5001 1276.2315,-161.5001"/>
</g>
<!-- ContactComponent -->
<g id="node2" class="node">
<title>ContactComponent</title>
<polygon fill="#ffffb3" stroke="#000000" points="2104.3795,-122 1979.6205,-122 1979.6205,-86 2104.3795,-86 2104.3795,-122"/>
<text text-anchor="middle" x="2042" y="-99.8" font-family="Times,serif" font-size="14.00" fill="#000000">ContactComponent</text>
</g>
<!-- ContactComponent&#45;&gt;AdminLayoutModule -->
<g id="edge2" class="edge">
<title>ContactComponent&#45;&gt;AdminLayoutModule</title>
<path fill="none" stroke="#000000" d="M2042,-122.0225C2042,-139.3734 2042,-163 2042,-163 2042,-163 1276.1499,-163 1276.1499,-163"/>
<polygon fill="#000000" stroke="#000000" points="1276.1499,-159.5001 1266.1499,-163 1276.1499,-166.5001 1276.1499,-159.5001"/>
</g>
<!-- DashboardComponent -->
<g id="node3" class="node">
<title>DashboardComponent</title>
<polygon fill="#ffffb3" stroke="#000000" points="1961.9734,-122 1820.0266,-122 1820.0266,-86 1961.9734,-86 1961.9734,-122"/>
<text text-anchor="middle" x="1891" y="-99.8" font-family="Times,serif" font-size="14.00" fill="#000000">DashboardComponent</text>
</g>
<!-- DashboardComponent&#45;&gt;AdminLayoutModule -->
<g id="edge3" class="edge">
<title>DashboardComponent&#45;&gt;AdminLayoutModule</title>
<path fill="none" stroke="#000000" d="M1891,-122.027C1891,-138.3976 1891,-160 1891,-160 1891,-160 1276.0806,-160 1276.0806,-160"/>
<polygon fill="#000000" stroke="#000000" points="1276.0806,-156.5001 1266.0806,-160 1276.0806,-163.5001 1276.0806,-156.5001"/>
</g>
<!-- DocumentationComponent -->
<g id="node4" class="node">
<title>DocumentationComponent</title>
<polygon fill="#ffffb3" stroke="#000000" points="1801.6456,-122 1634.3544,-122 1634.3544,-86 1801.6456,-86 1801.6456,-122"/>
<text text-anchor="middle" x="1718" y="-99.8" font-family="Times,serif" font-size="14.00" fill="#000000">DocumentationComponent</text>
</g>
<!-- DocumentationComponent&#45;&gt;AdminLayoutModule -->
<g id="edge4" class="edge">
<title>DocumentationComponent&#45;&gt;AdminLayoutModule</title>
<path fill="none" stroke="#000000" d="M1718,-122.2396C1718,-137.5706 1718,-157 1718,-157 1718,-157 1276.1848,-157 1276.1848,-157"/>
<polygon fill="#000000" stroke="#000000" points="1276.1848,-153.5001 1266.1848,-157 1276.1847,-160.5001 1276.1848,-153.5001"/>
</g>
<!-- OrganizationAddMembersComponent -->
<g id="node5" class="node">
<title>OrganizationAddMembersComponent</title>
<polygon fill="#ffffb3" stroke="#000000" points="1615.8917,-122 1384.1083,-122 1384.1083,-86 1615.8917,-86 1615.8917,-122"/>
<text text-anchor="middle" x="1500" y="-99.8" font-family="Times,serif" font-size="14.00" fill="#000000">OrganizationAddMembersComponent</text>
</g>
<!-- OrganizationAddMembersComponent&#45;&gt;AdminLayoutModule -->
<g id="edge5" class="edge">
<title>OrganizationAddMembersComponent&#45;&gt;AdminLayoutModule</title>
<path fill="none" stroke="#000000" d="M1500,-122.0511C1500,-136.373 1500,-154 1500,-154 1500,-154 1276.1345,-154 1276.1345,-154"/>
<polygon fill="#000000" stroke="#000000" points="1276.1346,-150.5001 1266.1345,-154 1276.1345,-157.5001 1276.1346,-150.5001"/>
</g>
<!-- OrganizationComponent -->
<g id="node6" class="node">
<title>OrganizationComponent</title>
<polygon fill="#ffffb3" stroke="#000000" points="1366.4158,-122 1211.5842,-122 1211.5842,-86 1366.4158,-86 1366.4158,-122"/>
<text text-anchor="middle" x="1289" y="-99.8" font-family="Times,serif" font-size="14.00" fill="#000000">OrganizationComponent</text>
</g>
<!-- OrganizationComponent&#45;&gt;AdminLayoutModule -->
<g id="edge6" class="edge">
<title>OrganizationComponent&#45;&gt;AdminLayoutModule</title>
<path fill="none" stroke="#000000" d="M1238.9201,-122.1061C1238.9201,-122.1061 1238.9201,-140.991 1238.9201,-140.991"/>
<polygon fill="#000000" stroke="#000000" points="1235.4201,-140.9909 1238.9201,-150.991 1242.4201,-140.991 1235.4201,-140.9909"/>
</g>
<!-- OrganizationJoinComponent -->
<g id="node7" class="node">
<title>OrganizationJoinComponent</title>
<polygon fill="#ffffb3" stroke="#000000" points="1193.7506,-122 1016.2494,-122 1016.2494,-86 1193.7506,-86 1193.7506,-122"/>
<text text-anchor="middle" x="1105" y="-99.8" font-family="Times,serif" font-size="14.00" fill="#000000">OrganizationJoinComponent</text>
</g>
<!-- OrganizationJoinComponent&#45;&gt;AdminLayoutModule -->
<g id="edge7" class="edge">
<title>OrganizationJoinComponent&#45;&gt;AdminLayoutModule</title>
<path fill="none" stroke="#000000" d="M1160.9138,-122.1061C1160.9138,-122.1061 1160.9138,-140.991 1160.9138,-140.991"/>
<polygon fill="#000000" stroke="#000000" points="1157.4138,-140.9909 1160.9138,-150.991 1164.4138,-140.991 1157.4138,-140.9909"/>
</g>
<!-- OrganizationRegistrationComponent -->
<g id="node8" class="node">
<title>OrganizationRegistrationComponent</title>
<polygon fill="#ffffb3" stroke="#000000" points="998.3487,-122 775.6513,-122 775.6513,-86 998.3487,-86 998.3487,-122"/>
<text text-anchor="middle" x="887" y="-99.8" font-family="Times,serif" font-size="14.00" fill="#000000">OrganizationRegistrationComponent</text>
</g>
<!-- OrganizationRegistrationComponent&#45;&gt;AdminLayoutModule -->
<g id="edge8" class="edge">
<title>OrganizationRegistrationComponent&#45;&gt;AdminLayoutModule</title>
<path fill="none" stroke="#000000" d="M887,-122.2396C887,-137.5706 887,-157 887,-157 887,-157 1117.8158,-157 1117.8158,-157"/>
<polygon fill="#000000" stroke="#000000" points="1117.8158,-160.5001 1127.8158,-157 1117.8158,-153.5001 1117.8158,-160.5001"/>
</g>
<!-- ProjectComponent -->
<g id="node9" class="node">
<title>ProjectComponent</title>
<polygon fill="#ffffb3" stroke="#000000" points="757.486,-122 636.514,-122 636.514,-86 757.486,-86 757.486,-122"/>
<text text-anchor="middle" x="697" y="-99.8" font-family="Times,serif" font-size="14.00" fill="#000000">ProjectComponent</text>
</g>
<!-- ProjectComponent&#45;&gt;AdminLayoutModule -->
<g id="edge9" class="edge">
<title>ProjectComponent&#45;&gt;AdminLayoutModule</title>
<path fill="none" stroke="#000000" d="M697,-122.0336C697,-139.0597 697,-162 697,-162 697,-162 1117.7398,-162 1117.7398,-162"/>
<polygon fill="#000000" stroke="#000000" points="1117.7398,-165.5001 1127.7398,-162 1117.7398,-158.5001 1117.7398,-165.5001"/>
</g>
<!-- ProjectsListComponent -->
<g id="node10" class="node">
<title>ProjectsListComponent</title>
<polygon fill="#ffffb3" stroke="#000000" points="618.2091,-122 469.7909,-122 469.7909,-86 618.2091,-86 618.2091,-122"/>
<text text-anchor="middle" x="544" y="-99.8" font-family="Times,serif" font-size="14.00" fill="#000000">ProjectsListComponent</text>
</g>
<!-- ProjectsListComponent&#45;&gt;AdminLayoutModule -->
<g id="edge10" class="edge">
<title>ProjectsListComponent&#45;&gt;AdminLayoutModule</title>
<path fill="none" stroke="#000000" d="M544,-122.2222C544,-140.8285 544,-167 544,-167 544,-167 1117.7358,-167 1117.7358,-167"/>
<polygon fill="#000000" stroke="#000000" points="1117.7358,-170.5001 1127.7358,-167 1117.7357,-163.5001 1117.7358,-170.5001"/>
</g>
<!-- SearchComponent -->
<g id="node11" class="node">
<title>SearchComponent</title>
<polygon fill="#ffffb3" stroke="#000000" points="451.9201,-122 332.0799,-122 332.0799,-86 451.9201,-86 451.9201,-122"/>
<text text-anchor="middle" x="392" y="-99.8" font-family="Times,serif" font-size="14.00" fill="#000000">SearchComponent</text>
</g>
<!-- SearchComponent&#45;&gt;AdminLayoutModule -->
<g id="edge11" class="edge">
<title>SearchComponent&#45;&gt;AdminLayoutModule</title>
<path fill="none" stroke="#000000" d="M392,-122.2228C392,-142.3652 392,-172 392,-172 392,-172 1117.6694,-172 1117.6694,-172"/>
<polygon fill="#000000" stroke="#000000" points="1117.6695,-175.5001 1127.6694,-172 1117.6694,-168.5001 1117.6695,-175.5001"/>
</g>
<!-- SupportComponent -->
<g id="node12" class="node">
<title>SupportComponent</title>
<polygon fill="#ffffb3" stroke="#000000" points="313.6666,-122 188.3334,-122 188.3334,-86 313.6666,-86 313.6666,-122"/>
<text text-anchor="middle" x="251" y="-99.8" font-family="Times,serif" font-size="14.00" fill="#000000">SupportComponent</text>
</g>
<!-- SupportComponent&#45;&gt;AdminLayoutModule -->
<g id="edge12" class="edge">
<title>SupportComponent&#45;&gt;AdminLayoutModule</title>
<path fill="none" stroke="#000000" d="M251,-122.0449C251,-143.6623 251,-177 251,-177 251,-177 1117.8216,-177 1117.8216,-177"/>
<polygon fill="#000000" stroke="#000000" points="1117.8217,-180.5001 1127.8216,-177 1117.8216,-173.5001 1117.8217,-180.5001"/>
</g>
<!-- UserProfileComponent -->
<g id="node13" class="node">
<title>UserProfileComponent</title>
<polygon fill="#ffffb3" stroke="#000000" points="169.8585,-122 24.1415,-122 24.1415,-86 169.8585,-86 169.8585,-122"/>
<text text-anchor="middle" x="97" y="-99.8" font-family="Times,serif" font-size="14.00" fill="#000000">UserProfileComponent</text>
</g>
<!-- UserProfileComponent&#45;&gt;AdminLayoutModule -->
<g id="edge13" class="edge">
<title>UserProfileComponent&#45;&gt;AdminLayoutModule</title>
<path fill="none" stroke="#000000" d="M97,-122.0908C97,-145.1328 97,-182 97,-182 97,-182 1117.7734,-182 1117.7734,-182"/>
<polygon fill="#000000" stroke="#000000" points="1117.7734,-185.5001 1127.7734,-182 1117.7733,-178.5001 1117.7734,-185.5001"/>
</g>
<!-- IconsModule -->
<g id="node15" class="node">
<title>IconsModule</title>
<polygon fill="#8dd3c7" stroke="#000000" points="2343.8697,-122 2340.8697,-126 2319.8697,-126 2316.8697,-122 2254.1303,-122 2254.1303,-86 2343.8697,-86 2343.8697,-122"/>
<text text-anchor="middle" x="2299" y="-99.8" font-family="Times,serif" font-size="14.00" fill="#000000">IconsModule</text>
</g>
<!-- IconsModule&#45;&gt;AdminLayoutModule -->
<g id="edge14" class="edge">
<title>IconsModule&#45;&gt;AdminLayoutModule</title>
<path fill="none" stroke="#000000" d="M2284.0217,-122.1686C2284.0217,-141.0898 2284.0217,-168 2284.0217,-168 2284.0217,-168 1276.2367,-168 1276.2367,-168"/>
<polygon fill="#000000" stroke="#000000" points="1276.2367,-164.5001 1266.2367,-168 1276.2366,-171.5001 1276.2367,-164.5001"/>
</g>
<!-- AppModule -->
<g id="node26" class="node">
<title>AppModule</title>
<polygon fill="#8dd3c7" stroke="#000000" points="3358.6571,-187 3355.6571,-191 3334.6571,-191 3331.6571,-187 3275.3429,-187 3275.3429,-151 3358.6571,-151 3358.6571,-187"/>
<text text-anchor="middle" x="3317" y="-164.8" font-family="Times,serif" font-size="14.00" fill="#000000">AppModule</text>
</g>
<!-- IconsModule&#45;&gt;AppModule -->
<g id="edge26" class="edge">
<title>IconsModule&#45;&gt;AppModule</title>
<path fill="none" stroke="#000000" d="M2313.9783,-122.3802C2313.9783,-146.2785 2313.9783,-185 2313.9783,-185 2313.9783,-185 3265.1784,-185 3265.1784,-185"/>
<polygon fill="#000000" stroke="#000000" points="3265.1784,-188.5001 3275.1784,-185 3265.1784,-181.5001 3265.1784,-188.5001"/>
</g>
<!-- AdminLayoutComponent -->
<g id="node16" class="node">
<title>AdminLayoutComponent</title>
<polygon fill="#ffffb3" stroke="#000000" points="4300.878,-122 4141.122,-122 4141.122,-86 4300.878,-86 4300.878,-122"/>
<text text-anchor="middle" x="4221" y="-99.8" font-family="Times,serif" font-size="14.00" fill="#000000">AdminLayoutComponent</text>
</g>
<!-- AdminLayoutComponent&#45;&gt;AppModule -->
<g id="edge15" class="edge">
<title>AdminLayoutComponent&#45;&gt;AppModule</title>
<path fill="none" stroke="#000000" d="M4221,-122.0908C4221,-145.1328 4221,-182 4221,-182 4221,-182 3368.7888,-182 3368.7888,-182"/>
<polygon fill="#000000" stroke="#000000" points="3368.7888,-178.5001 3358.7888,-182 3368.7887,-185.5001 3368.7888,-178.5001"/>
</g>
<!-- AlertComponent -->
<g id="node17" class="node">
<title>AlertComponent</title>
<polygon fill="#ffffb3" stroke="#000000" points="4123.0954,-122 4012.9046,-122 4012.9046,-86 4123.0954,-86 4123.0954,-122"/>
<text text-anchor="middle" x="4068" y="-99.8" font-family="Times,serif" font-size="14.00" fill="#000000">AlertComponent</text>
</g>
<!-- AlertComponent&#45;&gt;AppModule -->
<g id="edge16" class="edge">
<title>AlertComponent&#45;&gt;AppModule</title>
<path fill="none" stroke="#000000" d="M4068,-122.0449C4068,-143.6623 4068,-177 4068,-177 4068,-177 3368.7161,-177 3368.7161,-177"/>
<polygon fill="#000000" stroke="#000000" points="3368.7162,-173.5001 3358.7161,-177 3368.7161,-180.5001 3368.7162,-173.5001"/>
</g>
<!-- AppComponent -->
<g id="node18" class="node">
<title>AppComponent</title>
<polygon fill="#ffffb3" stroke="#000000" points="3994.9399,-122 3889.0601,-122 3889.0601,-86 3994.9399,-86 3994.9399,-122"/>
<text text-anchor="middle" x="3942" y="-99.8" font-family="Times,serif" font-size="14.00" fill="#000000">AppComponent</text>
</g>
<!-- AppComponent&#45;&gt;AppModule -->
<g id="edge17" class="edge">
<title>AppComponent&#45;&gt;AppModule</title>
<path fill="none" stroke="#000000" d="M3942,-122.2228C3942,-142.3652 3942,-172 3942,-172 3942,-172 3368.9785,-172 3368.9785,-172"/>
<polygon fill="#000000" stroke="#000000" points="3368.9785,-168.5001 3358.9785,-172 3368.9785,-175.5001 3368.9785,-168.5001"/>
</g>
<!-- FooterComponent -->
<g id="node19" class="node">
<title>FooterComponent</title>
<polygon fill="#ffffb3" stroke="#000000" points="3870.8809,-122 3753.1191,-122 3753.1191,-86 3870.8809,-86 3870.8809,-122"/>
<text text-anchor="middle" x="3812" y="-99.8" font-family="Times,serif" font-size="14.00" fill="#000000">FooterComponent</text>
</g>
<!-- FooterComponent&#45;&gt;AppModule -->
<g id="edge18" class="edge">
<title>FooterComponent&#45;&gt;AppModule</title>
<path fill="none" stroke="#000000" d="M3812,-122.2222C3812,-140.8285 3812,-167 3812,-167 3812,-167 3368.7768,-167 3368.7768,-167"/>
<polygon fill="#000000" stroke="#000000" points="3368.7768,-163.5001 3358.7768,-167 3368.7768,-170.5001 3368.7768,-163.5001"/>
</g>
<!-- LoginComponent -->
<g id="node20" class="node">
<title>LoginComponent</title>
<polygon fill="#ffffb3" stroke="#000000" points="3735.2758,-122 3620.7242,-122 3620.7242,-86 3735.2758,-86 3735.2758,-122"/>
<text text-anchor="middle" x="3678" y="-99.8" font-family="Times,serif" font-size="14.00" fill="#000000">LoginComponent</text>
</g>
<!-- LoginComponent&#45;&gt;AppModule -->
<g id="edge19" class="edge">
<title>LoginComponent&#45;&gt;AppModule</title>
<path fill="none" stroke="#000000" d="M3678,-122.0336C3678,-139.0597 3678,-162 3678,-162 3678,-162 3368.764,-162 3368.764,-162"/>
<polygon fill="#000000" stroke="#000000" points="3368.764,-158.5001 3358.764,-162 3368.7639,-165.5001 3368.764,-158.5001"/>
</g>
<!-- NavbarComponent -->
<g id="node21" class="node">
<title>NavbarComponent</title>
<polygon fill="#ffffb3" stroke="#000000" points="3602.0297,-122 3479.9703,-122 3479.9703,-86 3602.0297,-86 3602.0297,-122"/>
<text text-anchor="middle" x="3541" y="-99.8" font-family="Times,serif" font-size="14.00" fill="#000000">NavbarComponent</text>
</g>
<!-- NavbarComponent&#45;&gt;AppModule -->
<g id="edge20" class="edge">
<title>NavbarComponent&#45;&gt;AppModule</title>
<path fill="none" stroke="#000000" d="M3541,-122.2396C3541,-137.5706 3541,-157 3541,-157 3541,-157 3368.8699,-157 3368.8699,-157"/>
<polygon fill="#000000" stroke="#000000" points="3368.87,-153.5001 3358.8699,-157 3368.8699,-160.5001 3368.87,-153.5001"/>
</g>
<!-- NotFoundComponent -->
<g id="node22" class="node">
<title>NotFoundComponent</title>
<polygon fill="#ffffb3" stroke="#000000" points="3462.1122,-122 3323.8878,-122 3323.8878,-86 3462.1122,-86 3462.1122,-122"/>
<text text-anchor="middle" x="3393" y="-99.8" font-family="Times,serif" font-size="14.00" fill="#000000">NotFoundComponent</text>
</g>
<!-- NotFoundComponent&#45;&gt;AppModule -->
<g id="edge21" class="edge">
<title>NotFoundComponent&#45;&gt;AppModule</title>
<path fill="none" stroke="#000000" d="M3341.3861,-122.1061C3341.3861,-122.1061 3341.3861,-140.991 3341.3861,-140.991"/>
<polygon fill="#000000" stroke="#000000" points="3337.8861,-140.9909 3341.3861,-150.991 3344.8861,-140.991 3337.8861,-140.9909"/>
</g>
<!-- RegisterComponent -->
<g id="node23" class="node">
<title>RegisterComponent</title>
<polygon fill="#ffffb3" stroke="#000000" points="3305.9846,-122 3178.0154,-122 3178.0154,-86 3305.9846,-86 3305.9846,-122"/>
<text text-anchor="middle" x="3242" y="-99.8" font-family="Times,serif" font-size="14.00" fill="#000000">RegisterComponent</text>
</g>
<!-- RegisterComponent&#45;&gt;AppModule -->
<g id="edge22" class="edge">
<title>RegisterComponent&#45;&gt;AppModule</title>
<path fill="none" stroke="#000000" d="M3290.5821,-122.1061C3290.5821,-122.1061 3290.5821,-140.991 3290.5821,-140.991"/>
<polygon fill="#000000" stroke="#000000" points="3287.0821,-140.9909 3290.5821,-150.991 3294.0821,-140.991 3287.0821,-140.9909"/>
</g>
<!-- SidebarComponent -->
<g id="node24" class="node">
<title>SidebarComponent</title>
<polygon fill="#ffffb3" stroke="#000000" points="3160.0954,-122 3035.9046,-122 3035.9046,-86 3160.0954,-86 3160.0954,-122"/>
<text text-anchor="middle" x="3098" y="-99.8" font-family="Times,serif" font-size="14.00" fill="#000000">SidebarComponent</text>
</g>
<!-- SidebarComponent&#45;&gt;AppModule -->
<g id="edge23" class="edge">
<title>SidebarComponent&#45;&gt;AppModule</title>
<path fill="none" stroke="#000000" d="M3098,-122.308C3098,-142.1455 3098,-171 3098,-171 3098,-171 3265.2923,-171 3265.2923,-171"/>
<polygon fill="#000000" stroke="#000000" points="3265.2923,-174.5001 3275.2923,-171 3265.2923,-167.5001 3265.2923,-174.5001"/>
</g>
<!-- UnauthorizedComponent -->
<g id="node25" class="node">
<title>UnauthorizedComponent</title>
<polygon fill="#ffffb3" stroke="#000000" points="3017.5253,-122 2860.4747,-122 2860.4747,-86 3017.5253,-86 3017.5253,-122"/>
<text text-anchor="middle" x="2939" y="-99.8" font-family="Times,serif" font-size="14.00" fill="#000000">UnauthorizedComponent</text>
</g>
<!-- UnauthorizedComponent&#45;&gt;AppModule -->
<g id="edge24" class="edge">
<title>UnauthorizedComponent&#45;&gt;AppModule</title>
<path fill="none" stroke="#000000" d="M2939,-122.0267C2939,-142.7672 2939,-174 2939,-174 2939,-174 3265.1031,-174 3265.1031,-174"/>
<polygon fill="#000000" stroke="#000000" points="3265.1032,-177.5001 3275.1031,-174 3265.1031,-170.5001 3265.1032,-177.5001"/>
</g>
<!-- AppComponent  -->
<g id="node28" class="node">
<title>AppComponent </title>
<polygon fill="#80b1d3" stroke="#000000" points="3371.439,-252 3262.561,-252 3262.561,-216 3371.439,-216 3371.439,-252"/>
<text text-anchor="middle" x="3317" y="-229.8" font-family="Times,serif" font-size="14.00" fill="#000000">AppComponent </text>
</g>
<!-- AppModule&#45;&gt;AppComponent  -->
<g id="edge27" class="edge">
<title>AppModule&#45;&gt;AppComponent </title>
<path fill="none" stroke="#000000" stroke-dasharray="1,5" d="M3317,-187.1061C3317,-187.1061 3317,-205.991 3317,-205.991"/>
<polygon fill="#000000" stroke="#000000" points="3313.5001,-205.9909 3317,-215.991 3320.5001,-205.991 3313.5001,-205.9909"/>
</g>
<!-- AppRoutingModule -->
<g id="node27" class="node">
<title>AppRoutingModule</title>
<polygon fill="#8dd3c7" stroke="#000000" points="2836.2744,-122 2833.2744,-126 2812.2744,-126 2809.2744,-122 2707.7256,-122 2707.7256,-86 2836.2744,-86 2836.2744,-122"/>
<text text-anchor="middle" x="2772" y="-99.8" font-family="Times,serif" font-size="14.00" fill="#000000">AppRoutingModule</text>
</g>
<!-- AppRoutingModule&#45;&gt;AppModule -->
<g id="edge25" class="edge">
<title>AppRoutingModule&#45;&gt;AppModule</title>
<path fill="none" stroke="#000000" d="M2772,-122.1686C2772,-143.498 2772,-176 2772,-176 2772,-176 3265.1397,-176 3265.1397,-176"/>
<polygon fill="#000000" stroke="#000000" points="3265.1397,-179.5001 3275.1397,-176 3265.1397,-172.5001 3265.1397,-179.5001"/>
</g>
<!-- ErrorInterceptor -->
<g id="node29" class="node">
<title>ErrorInterceptor</title>
<ellipse fill="#fdb462" stroke="#000000" cx="2610" cy="-104" rx="73.5329" ry="18"/>
<text text-anchor="middle" x="2610" y="-99.8" font-family="Times,serif" font-size="14.00" fill="#000000">ErrorInterceptor</text>
</g>
<!-- ErrorInterceptor&#45;&gt;AppModule -->
<g id="edge28" class="edge">
<title>ErrorInterceptor&#45;&gt;AppModule</title>
<path fill="none" stroke="#000000" d="M2610,-122.1554C2610,-144.3519 2610,-179 2610,-179 2610,-179 3265.1527,-179 3265.1527,-179"/>
<polygon fill="#000000" stroke="#000000" points="3265.1527,-182.5001 3275.1527,-179 3265.1526,-175.5001 3265.1527,-182.5001"/>
</g>
<!-- JwtInterceptor -->
<g id="node30" class="node">
<title>JwtInterceptor</title>
<ellipse fill="#fdb462" stroke="#000000" cx="2451" cy="-104" rx="66.6094" ry="18"/>
<text text-anchor="middle" x="2451" y="-99.8" font-family="Times,serif" font-size="14.00" fill="#000000">JwtInterceptor</text>
</g>
<!-- JwtInterceptor&#45;&gt;AppModule -->
<g id="edge29" class="edge">
<title>JwtInterceptor&#45;&gt;AppModule</title>
<path fill="none" stroke="#000000" d="M2451,-122.0908C2451,-145.1328 2451,-182 2451,-182 2451,-182 3265.231,-182 3265.231,-182"/>
<polygon fill="#000000" stroke="#000000" points="3265.2311,-185.5001 3275.231,-182 3265.231,-178.5001 3265.2311,-185.5001"/>
</g>
</g>
</svg>
