<?xml version="1.0" encoding="UTF-8" standalone="no"?>
<!DOCTYPE svg PUBLIC "-//W3C//DTD SVG 1.1//EN"
 "http://www.w3.org/Graphics/SVG/1.1/DTD/svg11.dtd">
<!-- Generated by graphviz version 2.40.1 (20161225.0304)
 -->
<!-- Title: dependencies Pages: 1 -->
<svg width="4009pt" height="352pt"
 viewBox="0.00 0.00 4009.00 352.00" xmlns="http://www.w3.org/2000/svg" xmlns:xlink="http://www.w3.org/1999/xlink">
<g id="graph0" class="graph" transform="scale(1 1) rotate(0) translate(4 348)">
<title>dependencies</title>
<polygon fill="#ffffff" stroke="transparent" points="-4,4 -4,-348 4005,-348 4005,4 -4,4"/>
<text text-anchor="start" x="1979.5091" y="-42.4" font-family="sans-serif" font-weight="bold" font-size="14.00" fill="#000000">Legend</text>
<polygon fill="#ffffb3" stroke="transparent" points="1766.5,-10 1766.5,-30 1786.5,-30 1786.5,-10 1766.5,-10"/>
<text text-anchor="start" x="1790.129" y="-15.4" font-family="sans-serif" font-size="14.00" fill="#000000"> &#160;Declarations</text>
<polygon fill="#8dd3c7" stroke="transparent" points="1879.5,-10 1879.5,-30 1899.5,-30 1899.5,-10 1879.5,-10"/>
<text text-anchor="start" x="1903.2251" y="-15.4" font-family="sans-serif" font-size="14.00" fill="#000000"> &#160;Module</text>
<polygon fill="#80b1d3" stroke="transparent" points="1965.5,-10 1965.5,-30 1985.5,-30 1985.5,-10 1965.5,-10"/>
<text text-anchor="start" x="1989.2812" y="-15.4" font-family="sans-serif" font-size="14.00" fill="#000000"> &#160;Bootstrap</text>
<polygon fill="#fdb462" stroke="transparent" points="2062.5,-10 2062.5,-30 2082.5,-30 2082.5,-10 2062.5,-10"/>
<text text-anchor="start" x="2086.1732" y="-15.4" font-family="sans-serif" font-size="14.00" fill="#000000"> &#160;Providers</text>
<polygon fill="#fb8072" stroke="transparent" points="2158.5,-10 2158.5,-30 2178.5,-30 2178.5,-10 2158.5,-10"/>
<text text-anchor="start" x="2182.2258" y="-15.4" font-family="sans-serif" font-size="14.00" fill="#000000"> &#160;Exports</text>
<g id="clust1" class="cluster">
<title>cluster_AdminLayoutModule</title>
<polygon fill="none" stroke="#000000" stroke-dasharray="1,5" points="1965,-70 1965,-263 3993,-263 3993,-70 1965,-70"/>
</g>
<g id="clust2" class="cluster">
<title>cluster_AdminLayoutModule_declarations</title>
<polygon fill="none" stroke="#000000" points="2087,-146 2087,-198 3985,-198 3985,-146 2087,-146"/>
</g>
<g id="clust3" class="cluster">
<title>cluster_AdminLayoutModule_ChatComponent_providers</title>
<polygon fill="none" stroke="#000000" points="3853,-78 3853,-130 3985,-130 3985,-78 3853,-78"/>
</g>
<g id="clust14" class="cluster">
<title>cluster_AdminLayoutModule_imports</title>
<polygon fill="none" stroke="#000000" points="1973,-146 1973,-198 2079,-198 2079,-146 1973,-146"/>
</g>
<g id="clust18" class="cluster">
<title>cluster_AppModule</title>
<polygon fill="none" stroke="#000000" stroke-dasharray="1,5" points="8,-138 8,-336 1957,-336 1957,-138 8,-138"/>
</g>
<g id="clust19" class="cluster">
<title>cluster_AppModule_declarations</title>
<polygon fill="none" stroke="#000000" points="492,-146 492,-198 1949,-198 1949,-146 492,-146"/>
</g>
<g id="clust30" class="cluster">
<title>cluster_AppModule_imports</title>
<polygon fill="none" stroke="#000000" points="340,-146 340,-198 484,-198 484,-146 340,-146"/>
</g>
<g id="clust32" class="cluster">
<title>cluster_AppModule_bootstrap</title>
<polygon fill="none" stroke="#000000" points="1045,-276 1045,-328 1169,-328 1169,-276 1045,-276"/>
</g>
<g id="clust33" class="cluster">
<title>cluster_AppModule_providers</title>
<polygon fill="none" stroke="#000000" points="16,-146 16,-198 332,-198 332,-146 16,-146"/>
</g>
<!-- ChatComponent -->
<g id="node1" class="node">
<title>ChatComponent</title>
<polygon fill="#ffffb3" stroke="#000000" points="3976.7744,-190 3869.2256,-190 3869.2256,-154 3976.7744,-154 3976.7744,-190"/>
<text text-anchor="middle" x="3923" y="-167.8" font-family="Times,serif" font-size="14.00" fill="#000000">ChatComponent</text>
</g>
<!-- AdminLayoutModule -->
<g id="node12" class="node">
<title>AdminLayoutModule</title>
<polygon fill="#8dd3c7" stroke="#000000" points="2998.0954,-255 2995.0954,-259 2974.0954,-259 2971.0954,-255 2859.9046,-255 2859.9046,-219 2998.0954,-219 2998.0954,-255"/>
<text text-anchor="middle" x="2929" y="-232.8" font-family="Times,serif" font-size="14.00" fill="#000000">AdminLayoutModule</text>
</g>
<!-- ChatComponent&#45;&gt;AdminLayoutModule -->
<g id="edge1" class="edge">
<title>ChatComponent&#45;&gt;AdminLayoutModule</title>
<path fill="none" stroke="#000000" d="M3923,-190.2479C3923,-213.0179 3923,-249 3923,-249 3923,-249 3008.107,-249 3008.107,-249"/>
<polygon fill="#000000" stroke="#000000" points="3008.107,-245.5001 2998.107,-249 3008.1069,-252.5001 3008.107,-245.5001"/>
</g>
<!-- ContactComponent -->
<g id="node2" class="node">
<title>ContactComponent</title>
<polygon fill="#ffffb3" stroke="#000000" points="3851.3795,-190 3726.6205,-190 3726.6205,-154 3851.3795,-154 3851.3795,-190"/>
<text text-anchor="middle" x="3789" y="-167.8" font-family="Times,serif" font-size="14.00" fill="#000000">ContactComponent</text>
</g>
<!-- ContactComponent&#45;&gt;AdminLayoutModule -->
<g id="edge3" class="edge">
<title>ContactComponent&#45;&gt;AdminLayoutModule</title>
<path fill="none" stroke="#000000" d="M3789,-190.2843C3789,-211.3211 3789,-243 3789,-243 3789,-243 3008.2859,-243 3008.2859,-243"/>
<polygon fill="#000000" stroke="#000000" points="3008.2859,-239.5001 2998.2859,-243 3008.2859,-246.5001 3008.2859,-239.5001"/>
</g>
<!-- DashboardComponent -->
<g id="node3" class="node">
<title>DashboardComponent</title>
<polygon fill="#ffffb3" stroke="#000000" points="3708.9734,-190 3567.0266,-190 3567.0266,-154 3708.9734,-154 3708.9734,-190"/>
<text text-anchor="middle" x="3638" y="-167.8" font-family="Times,serif" font-size="14.00" fill="#000000">DashboardComponent</text>
</g>
<!-- DashboardComponent&#45;&gt;AdminLayoutModule -->
<g id="edge4" class="edge">
<title>DashboardComponent&#45;&gt;AdminLayoutModule</title>
<path fill="none" stroke="#000000" d="M3638,-190.1061C3638,-209.3391 3638,-237 3638,-237 3638,-237 3008.2728,-237 3008.2728,-237"/>
<polygon fill="#000000" stroke="#000000" points="3008.2729,-233.5001 2998.2728,-237 3008.2728,-240.5001 3008.2729,-233.5001"/>
</g>
<!-- OrganizationAddMembersComponent -->
<g id="node4" class="node">
<title>OrganizationAddMembersComponent</title>
<polygon fill="#ffffb3" stroke="#000000" points="3548.8917,-190 3317.1083,-190 3317.1083,-154 3548.8917,-154 3548.8917,-190"/>
<text text-anchor="middle" x="3433" y="-167.8" font-family="Times,serif" font-size="14.00" fill="#000000">OrganizationAddMembersComponent</text>
</g>
<!-- OrganizationAddMembersComponent&#45;&gt;AdminLayoutModule -->
<g id="edge5" class="edge">
<title>OrganizationAddMembersComponent&#45;&gt;AdminLayoutModule</title>
<path fill="none" stroke="#000000" d="M3433,-190.0225C3433,-207.3734 3433,-231 3433,-231 3433,-231 3008.2859,-231 3008.2859,-231"/>
<polygon fill="#000000" stroke="#000000" points="3008.2859,-227.5001 2998.2859,-231 3008.2859,-234.5001 3008.2859,-227.5001"/>
</g>
<!-- OrganizationComponent -->
<g id="node5" class="node">
<title>OrganizationComponent</title>
<polygon fill="#ffffb3" stroke="#000000" points="3299.4158,-190 3144.5842,-190 3144.5842,-154 3299.4158,-154 3299.4158,-190"/>
<text text-anchor="middle" x="3222" y="-167.8" font-family="Times,serif" font-size="14.00" fill="#000000">OrganizationComponent</text>
</g>
<!-- OrganizationComponent&#45;&gt;AdminLayoutModule -->
<g id="edge6" class="edge">
<title>OrganizationComponent&#45;&gt;AdminLayoutModule</title>
<path fill="none" stroke="#000000" d="M3222,-190.2396C3222,-205.5706 3222,-225 3222,-225 3222,-225 3008.0659,-225 3008.0659,-225"/>
<polygon fill="#000000" stroke="#000000" points="3008.0659,-221.5001 2998.0659,-225 3008.0659,-228.5001 3008.0659,-221.5001"/>
</g>
<!-- OrganizationJoinComponent -->
<g id="node6" class="node">
<title>OrganizationJoinComponent</title>
<polygon fill="#ffffb3" stroke="#000000" points="3126.7506,-190 2949.2494,-190 2949.2494,-154 3126.7506,-154 3126.7506,-190"/>
<text text-anchor="middle" x="3038" y="-167.8" font-family="Times,serif" font-size="14.00" fill="#000000">OrganizationJoinComponent</text>
</g>
<!-- OrganizationJoinComponent&#45;&gt;AdminLayoutModule -->
<g id="edge7" class="edge">
<title>OrganizationJoinComponent&#45;&gt;AdminLayoutModule</title>
<path fill="none" stroke="#000000" d="M2973.5863,-190.1061C2973.5863,-190.1061 2973.5863,-208.991 2973.5863,-208.991"/>
<polygon fill="#000000" stroke="#000000" points="2970.0863,-208.9909 2973.5863,-218.991 2977.0863,-208.991 2970.0863,-208.9909"/>
</g>
<!-- OrganizationRegistrationComponent -->
<g id="node7" class="node">
<title>OrganizationRegistrationComponent</title>
<polygon fill="#ffffb3" stroke="#000000" points="2931.3487,-190 2708.6513,-190 2708.6513,-154 2931.3487,-154 2931.3487,-190"/>
<text text-anchor="middle" x="2820" y="-167.8" font-family="Times,serif" font-size="14.00" fill="#000000">OrganizationRegistrationComponent</text>
</g>
<!-- OrganizationRegistrationComponent&#45;&gt;AdminLayoutModule -->
<g id="edge8" class="edge">
<title>OrganizationRegistrationComponent&#45;&gt;AdminLayoutModule</title>
<path fill="none" stroke="#000000" d="M2895.6883,-190.1061C2895.6883,-190.1061 2895.6883,-208.991 2895.6883,-208.991"/>
<polygon fill="#000000" stroke="#000000" points="2892.1884,-208.9909 2895.6883,-218.991 2899.1884,-208.991 2892.1884,-208.9909"/>
</g>
<!-- ProjectComponent -->
<g id="node8" class="node">
<title>ProjectComponent</title>
<polygon fill="#ffffb3" stroke="#000000" points="2690.486,-190 2569.514,-190 2569.514,-154 2690.486,-154 2690.486,-190"/>
<text text-anchor="middle" x="2630" y="-167.8" font-family="Times,serif" font-size="14.00" fill="#000000">ProjectComponent</text>
</g>
<!-- ProjectComponent&#45;&gt;AdminLayoutModule -->
<g id="edge9" class="edge">
<title>ProjectComponent&#45;&gt;AdminLayoutModule</title>
<path fill="none" stroke="#000000" d="M2630,-190.0511C2630,-204.373 2630,-222 2630,-222 2630,-222 2849.6519,-222 2849.6519,-222"/>
<polygon fill="#000000" stroke="#000000" points="2849.6519,-225.5001 2859.6519,-222 2849.6518,-218.5001 2849.6519,-225.5001"/>
</g>
<!-- ProjectsListComponent -->
<g id="node9" class="node">
<title>ProjectsListComponent</title>
<polygon fill="#ffffb3" stroke="#000000" points="2551.2091,-190 2402.7909,-190 2402.7909,-154 2551.2091,-154 2551.2091,-190"/>
<text text-anchor="middle" x="2477" y="-167.8" font-family="Times,serif" font-size="14.00" fill="#000000">ProjectsListComponent</text>
</g>
<!-- ProjectsListComponent&#45;&gt;AdminLayoutModule -->
<g id="edge10" class="edge">
<title>ProjectsListComponent&#45;&gt;AdminLayoutModule</title>
<path fill="none" stroke="#000000" d="M2477,-190.2396C2477,-205.5706 2477,-225 2477,-225 2477,-225 2849.8589,-225 2849.8589,-225"/>
<polygon fill="#000000" stroke="#000000" points="2849.8589,-228.5001 2859.8589,-225 2849.8589,-221.5001 2849.8589,-228.5001"/>
</g>
<!-- SupportComponent -->
<g id="node10" class="node">
<title>SupportComponent</title>
<polygon fill="#ffffb3" stroke="#000000" points="2384.6666,-190 2259.3334,-190 2259.3334,-154 2384.6666,-154 2384.6666,-190"/>
<text text-anchor="middle" x="2322" y="-167.8" font-family="Times,serif" font-size="14.00" fill="#000000">SupportComponent</text>
</g>
<!-- SupportComponent&#45;&gt;AdminLayoutModule -->
<g id="edge11" class="edge">
<title>SupportComponent&#45;&gt;AdminLayoutModule</title>
<path fill="none" stroke="#000000" d="M2322,-190.027C2322,-206.3976 2322,-228 2322,-228 2322,-228 2849.6651,-228 2849.6651,-228"/>
<polygon fill="#000000" stroke="#000000" points="2849.6652,-231.5001 2859.6651,-228 2849.6651,-224.5001 2849.6652,-231.5001"/>
</g>
<!-- UserProfileComponent -->
<g id="node11" class="node">
<title>UserProfileComponent</title>
<polygon fill="#ffffb3" stroke="#000000" points="2240.8585,-190 2095.1415,-190 2095.1415,-154 2240.8585,-154 2240.8585,-190"/>
<text text-anchor="middle" x="2168" y="-167.8" font-family="Times,serif" font-size="14.00" fill="#000000">UserProfileComponent</text>
</g>
<!-- UserProfileComponent&#45;&gt;AdminLayoutModule -->
<g id="edge12" class="edge">
<title>UserProfileComponent&#45;&gt;AdminLayoutModule</title>
<path fill="none" stroke="#000000" d="M2168,-190.0225C2168,-207.3734 2168,-231 2168,-231 2168,-231 2849.7869,-231 2849.7869,-231"/>
<polygon fill="#000000" stroke="#000000" points="2849.7869,-234.5001 2859.7869,-231 2849.7868,-227.5001 2849.7869,-234.5001"/>
</g>
<!-- ChatService -->
<g id="node13" class="node">
<title>ChatService</title>
<ellipse fill="#fdb462" stroke="#000000" cx="3919" cy="-104" rx="58.4628" ry="18"/>
<text text-anchor="middle" x="3919" y="-99.8" font-family="Times,serif" font-size="14.00" fill="#000000">ChatService</text>
</g>
<!-- ChatService&#45;&gt;ChatComponent -->
<g id="edge2" class="edge">
<title>ChatService&#45;&gt;ChatComponent</title>
<path fill="none" stroke="#000000" d="M3923,-122.2228C3923,-122.2228 3923,-143.7269 3923,-143.7269"/>
<polygon fill="#000000" stroke="#000000" points="3919.5001,-143.7269 3923,-153.7269 3926.5001,-143.727 3919.5001,-143.7269"/>
</g>
<!-- IconsModule -->
<g id="node14" class="node">
<title>IconsModule</title>
<polygon fill="#8dd3c7" stroke="#000000" points="2070.8697,-190 2067.8697,-194 2046.8697,-194 2043.8697,-190 1981.1303,-190 1981.1303,-154 2070.8697,-154 2070.8697,-190"/>
<text text-anchor="middle" x="2026" y="-167.8" font-family="Times,serif" font-size="14.00" fill="#000000">IconsModule</text>
</g>
<!-- IconsModule&#45;&gt;AdminLayoutModule -->
<g id="edge13" class="edge">
<title>IconsModule&#45;&gt;AdminLayoutModule</title>
<path fill="none" stroke="#000000" d="M2040.9783,-190.2667C2040.9783,-208.5552 2040.9783,-234 2040.9783,-234 2040.9783,-234 2849.6883,-234 2849.6883,-234"/>
<polygon fill="#000000" stroke="#000000" points="2849.6883,-237.5001 2859.6883,-234 2849.6883,-230.5001 2849.6883,-237.5001"/>
</g>
<!-- AppModule -->
<g id="node25" class="node">
<title>AppModule</title>
<polygon fill="#8dd3c7" stroke="#000000" points="1148.6571,-255 1145.6571,-259 1124.6571,-259 1121.6571,-255 1065.3429,-255 1065.3429,-219 1148.6571,-219 1148.6571,-255"/>
<text text-anchor="middle" x="1107" y="-232.8" font-family="Times,serif" font-size="14.00" fill="#000000">AppModule</text>
</g>
<!-- IconsModule&#45;&gt;AppModule -->
<g id="edge25" class="edge">
<title>IconsModule&#45;&gt;AppModule</title>
<path fill="none" stroke="#000000" d="M2011.0217,-190.1532C2011.0217,-213.7566 2011.0217,-252 2011.0217,-252 2011.0217,-252 1158.7898,-252 1158.7898,-252"/>
<polygon fill="#000000" stroke="#000000" points="1158.7898,-248.5001 1148.7898,-252 1158.7897,-255.5001 1158.7898,-248.5001"/>
</g>
<!-- AdminLayoutComponent -->
<g id="node15" class="node">
<title>AdminLayoutComponent</title>
<polygon fill="#ffffb3" stroke="#000000" points="1940.878,-190 1781.122,-190 1781.122,-154 1940.878,-154 1940.878,-190"/>
<text text-anchor="middle" x="1861" y="-167.8" font-family="Times,serif" font-size="14.00" fill="#000000">AdminLayoutComponent</text>
</g>
<!-- AdminLayoutComponent&#45;&gt;AppModule -->
<g id="edge14" class="edge">
<title>AdminLayoutComponent&#45;&gt;AppModule</title>
<path fill="none" stroke="#000000" d="M1861,-190.2479C1861,-213.0179 1861,-249 1861,-249 1861,-249 1158.8828,-249 1158.8828,-249"/>
<polygon fill="#000000" stroke="#000000" points="1158.8828,-245.5001 1148.8828,-249 1158.8827,-252.5001 1158.8828,-245.5001"/>
</g>
<!-- AlertComponent -->
<g id="node16" class="node">
<title>AlertComponent</title>
<polygon fill="#ffffb3" stroke="#000000" points="1763.0954,-190 1652.9046,-190 1652.9046,-154 1763.0954,-154 1763.0954,-190"/>
<text text-anchor="middle" x="1708" y="-167.8" font-family="Times,serif" font-size="14.00" fill="#000000">AlertComponent</text>
</g>
<!-- AlertComponent&#45;&gt;AppModule -->
<g id="edge15" class="edge">
<title>AlertComponent&#45;&gt;AppModule</title>
<path fill="none" stroke="#000000" d="M1708,-190.2921C1708,-212.2057 1708,-246 1708,-246 1708,-246 1158.784,-246 1158.784,-246"/>
<polygon fill="#000000" stroke="#000000" points="1158.784,-242.5001 1148.784,-246 1158.784,-249.5001 1158.784,-242.5001"/>
</g>
<!-- AppComponent -->
<g id="node17" class="node">
<title>AppComponent</title>
<polygon fill="#ffffb3" stroke="#000000" points="1634.9399,-190 1529.0601,-190 1529.0601,-154 1634.9399,-154 1634.9399,-190"/>
<text text-anchor="middle" x="1582" y="-167.8" font-family="Times,serif" font-size="14.00" fill="#000000">AppComponent</text>
</g>
<!-- AppComponent&#45;&gt;AppModule -->
<g id="edge16" class="edge">
<title>AppComponent&#45;&gt;AppModule</title>
<path fill="none" stroke="#000000" d="M1582,-190.2843C1582,-211.3211 1582,-243 1582,-243 1582,-243 1158.7368,-243 1158.7368,-243"/>
<polygon fill="#000000" stroke="#000000" points="1158.7368,-239.5001 1148.7368,-243 1158.7367,-246.5001 1158.7368,-239.5001"/>
</g>
<!-- FooterComponent -->
<g id="node18" class="node">
<title>FooterComponent</title>
<polygon fill="#ffffb3" stroke="#000000" points="1510.8809,-190 1393.1191,-190 1393.1191,-154 1510.8809,-154 1510.8809,-190"/>
<text text-anchor="middle" x="1452" y="-167.8" font-family="Times,serif" font-size="14.00" fill="#000000">FooterComponent</text>
</g>
<!-- FooterComponent&#45;&gt;AppModule -->
<g id="edge17" class="edge">
<title>FooterComponent&#45;&gt;AppModule</title>
<path fill="none" stroke="#000000" d="M1452,-190.2228C1452,-210.3652 1452,-240 1452,-240 1452,-240 1158.9589,-240 1158.9589,-240"/>
<polygon fill="#000000" stroke="#000000" points="1158.9589,-236.5001 1148.9589,-240 1158.9588,-243.5001 1158.9589,-236.5001"/>
</g>
<!-- LoginComponent -->
<g id="node19" class="node">
<title>LoginComponent</title>
<polygon fill="#ffffb3" stroke="#000000" points="1375.2758,-190 1260.7242,-190 1260.7242,-154 1375.2758,-154 1375.2758,-190"/>
<text text-anchor="middle" x="1318" y="-167.8" font-family="Times,serif" font-size="14.00" fill="#000000">LoginComponent</text>
</g>
<!-- LoginComponent&#45;&gt;AppModule -->
<g id="edge18" class="edge">
<title>LoginComponent&#45;&gt;AppModule</title>
<path fill="none" stroke="#000000" d="M1318,-190.1061C1318,-209.3391 1318,-237 1318,-237 1318,-237 1158.6868,-237 1158.6868,-237"/>
<polygon fill="#000000" stroke="#000000" points="1158.6868,-233.5001 1148.6868,-237 1158.6868,-240.5001 1158.6868,-233.5001"/>
</g>
<!-- NavbarComponent -->
<g id="node20" class="node">
<title>NavbarComponent</title>
<polygon fill="#ffffb3" stroke="#000000" points="1242.0297,-190 1119.9703,-190 1119.9703,-154 1242.0297,-154 1242.0297,-190"/>
<text text-anchor="middle" x="1181" y="-167.8" font-family="Times,serif" font-size="14.00" fill="#000000">NavbarComponent</text>
</g>
<!-- NavbarComponent&#45;&gt;AppModule -->
<g id="edge19" class="edge">
<title>NavbarComponent&#45;&gt;AppModule</title>
<path fill="none" stroke="#000000" d="M1134.2819,-190.1061C1134.2819,-190.1061 1134.2819,-208.991 1134.2819,-208.991"/>
<polygon fill="#000000" stroke="#000000" points="1130.782,-208.9909 1134.2819,-218.991 1137.782,-208.991 1130.782,-208.9909"/>
</g>
<!-- NotFoundComponent -->
<g id="node21" class="node">
<title>NotFoundComponent</title>
<polygon fill="#ffffb3" stroke="#000000" points="1102.1122,-190 963.8878,-190 963.8878,-154 1102.1122,-154 1102.1122,-190"/>
<text text-anchor="middle" x="1033" y="-167.8" font-family="Times,serif" font-size="14.00" fill="#000000">NotFoundComponent</text>
</g>
<!-- NotFoundComponent&#45;&gt;AppModule -->
<g id="edge20" class="edge">
<title>NotFoundComponent&#45;&gt;AppModule</title>
<path fill="none" stroke="#000000" d="M1083.614,-190.1061C1083.614,-190.1061 1083.614,-208.991 1083.614,-208.991"/>
<polygon fill="#000000" stroke="#000000" points="1080.114,-208.9909 1083.614,-218.991 1087.114,-208.991 1080.114,-208.9909"/>
</g>
<!-- RegisterComponent -->
<g id="node22" class="node">
<title>RegisterComponent</title>
<polygon fill="#ffffb3" stroke="#000000" points="945.9846,-190 818.0154,-190 818.0154,-154 945.9846,-154 945.9846,-190"/>
<text text-anchor="middle" x="882" y="-167.8" font-family="Times,serif" font-size="14.00" fill="#000000">RegisterComponent</text>
</g>
<!-- RegisterComponent&#45;&gt;AppModule -->
<g id="edge21" class="edge">
<title>RegisterComponent&#45;&gt;AppModule</title>
<path fill="none" stroke="#000000" d="M882,-190.2396C882,-205.5706 882,-225 882,-225 882,-225 1055.2065,-225 1055.2065,-225"/>
<polygon fill="#000000" stroke="#000000" points="1055.2066,-228.5001 1065.2065,-225 1055.2065,-221.5001 1055.2066,-228.5001"/>
</g>
<!-- SidebarComponent -->
<g id="node23" class="node">
<title>SidebarComponent</title>
<polygon fill="#ffffb3" stroke="#000000" points="800.0954,-190 675.9046,-190 675.9046,-154 800.0954,-154 800.0954,-190"/>
<text text-anchor="middle" x="738" y="-167.8" font-family="Times,serif" font-size="14.00" fill="#000000">SidebarComponent</text>
</g>
<!-- SidebarComponent&#45;&gt;AppModule -->
<g id="edge22" class="edge">
<title>SidebarComponent&#45;&gt;AppModule</title>
<path fill="none" stroke="#000000" d="M738,-190.0336C738,-207.0597 738,-230 738,-230 738,-230 1055.0303,-230 1055.0303,-230"/>
<polygon fill="#000000" stroke="#000000" points="1055.0303,-233.5001 1065.0303,-230 1055.0302,-226.5001 1055.0303,-233.5001"/>
</g>
<!-- UnauthorizedComponent -->
<g id="node24" class="node">
<title>UnauthorizedComponent</title>
<polygon fill="#ffffb3" stroke="#000000" points="657.5253,-190 500.4747,-190 500.4747,-154 657.5253,-154 657.5253,-190"/>
<text text-anchor="middle" x="579" y="-167.8" font-family="Times,serif" font-size="14.00" fill="#000000">UnauthorizedComponent</text>
</g>
<!-- UnauthorizedComponent&#45;&gt;AppModule -->
<g id="edge23" class="edge">
<title>UnauthorizedComponent&#45;&gt;AppModule</title>
<path fill="none" stroke="#000000" d="M579,-190.2222C579,-208.8285 579,-235 579,-235 579,-235 1055.1274,-235 1055.1274,-235"/>
<polygon fill="#000000" stroke="#000000" points="1055.1274,-238.5001 1065.1274,-235 1055.1274,-231.5001 1055.1274,-238.5001"/>
</g>
<!-- AppComponent  -->
<g id="node27" class="node">
<title>AppComponent </title>
<polygon fill="#80b1d3" stroke="#000000" points="1161.439,-320 1052.561,-320 1052.561,-284 1161.439,-284 1161.439,-320"/>
<text text-anchor="middle" x="1107" y="-297.8" font-family="Times,serif" font-size="14.00" fill="#000000">AppComponent </text>
</g>
<!-- AppModule&#45;&gt;AppComponent  -->
<g id="edge26" class="edge">
<title>AppModule&#45;&gt;AppComponent </title>
<path fill="none" stroke="#000000" stroke-dasharray="1,5" d="M1107,-255.1061C1107,-255.1061 1107,-273.991 1107,-273.991"/>
<polygon fill="#000000" stroke="#000000" points="1103.5001,-273.9909 1107,-283.991 1110.5001,-273.991 1103.5001,-273.9909"/>
</g>
<!-- AppRoutingModule -->
<g id="node26" class="node">
<title>AppRoutingModule</title>
<polygon fill="#8dd3c7" stroke="#000000" points="476.2744,-190 473.2744,-194 452.2744,-194 449.2744,-190 347.7256,-190 347.7256,-154 476.2744,-154 476.2744,-190"/>
<text text-anchor="middle" x="412" y="-167.8" font-family="Times,serif" font-size="14.00" fill="#000000">AppRoutingModule</text>
</g>
<!-- AppRoutingModule&#45;&gt;AppModule -->
<g id="edge24" class="edge">
<title>AppRoutingModule&#45;&gt;AppModule</title>
<path fill="none" stroke="#000000" d="M412,-190.2228C412,-210.3652 412,-240 412,-240 412,-240 1055.0898,-240 1055.0898,-240"/>
<polygon fill="#000000" stroke="#000000" points="1055.0898,-243.5001 1065.0898,-240 1055.0897,-236.5001 1055.0898,-243.5001"/>
</g>
<!-- ErrorInterceptor -->
<g id="node28" class="node">
<title>ErrorInterceptor</title>
<ellipse fill="#fdb462" stroke="#000000" cx="250" cy="-172" rx="73.5329" ry="18"/>
<text text-anchor="middle" x="250" y="-167.8" font-family="Times,serif" font-size="14.00" fill="#000000">ErrorInterceptor</text>
</g>
<!-- ErrorInterceptor&#45;&gt;AppModule -->
<g id="edge27" class="edge">
<title>ErrorInterceptor&#45;&gt;AppModule</title>
<path fill="none" stroke="#000000" d="M250,-190.0449C250,-211.6623 250,-245 250,-245 250,-245 1055.085,-245 1055.085,-245"/>
<polygon fill="#000000" stroke="#000000" points="1055.085,-248.5001 1065.085,-245 1055.0849,-241.5001 1055.085,-248.5001"/>
</g>
<!-- JwtInterceptor -->
<g id="node29" class="node">
<title>JwtInterceptor</title>
<ellipse fill="#fdb462" stroke="#000000" cx="91" cy="-172" rx="66.6094" ry="18"/>
<text text-anchor="middle" x="91" y="-167.8" font-family="Times,serif" font-size="14.00" fill="#000000">JwtInterceptor</text>
</g>
<!-- JwtInterceptor&#45;&gt;AppModule -->
<g id="edge28" class="edge">
<title>JwtInterceptor&#45;&gt;AppModule</title>
<path fill="none" stroke="#000000" d="M91,-190.0908C91,-213.1328 91,-250 91,-250 91,-250 1055.2774,-250 1055.2774,-250"/>
<polygon fill="#000000" stroke="#000000" points="1055.2775,-253.5001 1065.2774,-250 1055.2774,-246.5001 1055.2775,-253.5001"/>
</g>
</g>
</svg>
